{
.appVersion = "916";
copyright = "Nunito Font, Copyright (c) 2014, Vernon Adams (vern@newtypography.co.uk)";
customParameters = (
{
name = license;
value = "This Font Software is licensed under the SIL Open Font License, Version 1.1. This license is available with a FAQ at: http://scripts.sil.org/OFL";
},
{
name = licenseURL;
value = "http://scripts.sil.org/OFL";
},
{
name = vendorID;
value = NeWT;
},
{
name = trademark;
value = "Nunito is a trademark of Vernon Adams and may be registered in certain jurisdictions.";
},
{
name = fsType;
value = 0;
},
{
name = "Use Typo Metrics";
value = 1;
}
);
date = "2016-08-09 21:08:05 +0000";
designer = "Vernon Adams";
designerURL = "http://newtypography.co.uk";
familyName = Nunito;
featurePrefixes = (
{
automatic = 1;

glyphs = (
{
glyphname = A;
lastChange = "2016-08-19 11:37:09 +0000";
layers = (
{
layerId = "E8E050E3-0A14-4B86-A80E-91CF38789E8F";
paths = (
{
closed = 1;
nodes = (
"378 637 LINE",
"348 637 LINE",
"621 20 LINE SMOOTH",
"642 -29 OFFCURVE",
"716 2 OFFCURVE",
"694 49 CURVE SMOOTH",
"409 682 LINE SMOOTH",
"392 719 OFFCURVE",
"333 721 OFFCURVE",
"316 682 CURVE SMOOTH",
"30 49 LINE SMOOTH",
"8 2 OFFCURVE",
"83 -29 OFFCURVE",
"105 20 CURVE SMOOTH"
);
},
{
closed = 1;
nodes = (
"577 180 LINE",
"547 250 LINE",
"177 250 LINE",
"147 180 LINE"
);
}
);
width = 725;
}
);
unicode = 0041;
userData = {
anchors = (
);
b = {
};
com.typemytype.robofont.layerData = {
b = {
anchors = (
);
components = (
);
contours = (
{
points = (
{
segmentType = line;
smooth = 0;
x = 403;
y = 502;
},
{
segmentType = line;
smooth = 0;
x = 703;
y = 1275;
},
{
segmentType = line;
smooth = 0;
x = 705;
y = 1275;
},
{
segmentType = line;
smooth = 0;
x = 1004;
y = 502;
}
);
},
{
points = (
{
segmentType = curve;
smooth = 1;
x = 150;
y = 0;
},
{
smooth = 0;
x = 181;
y = 0;
},
{
smooth = 0;
x = 214;
y = 15;
},
{
segmentType = curve;
smooth = 1;
x = 229;
y = 53;
},
{
segmentType = line;
smooth = 0;
x = 356;
y = 373;
},
{
segmentType = line;
smooth = 0;
x = 1051;
y = 373;
},
{
segmentType = line;
smooth = 1;
x = 1179;
y = 53;
},
{
smooth = 0;
x = 1193;
y = 17;
},
{
smooth = 0;
x = 1228;
y = 0;
},
{
segmentType = curve;
smooth = 1;
x = 1260;
y = 0;
},
{
smooth = 0;
x = 1306;
y = 0;
},
{
smooth = 0;
x = 1354;
y = 31;
},
{
segmentType = curve;
smooth = 1;
x = 1354;
y = 80;
},
{
smooth = 0;
x = 1354;
y = 87;
},
{
smooth = 0;
x = 1352;
y = 97;
},
{
segmentType = curve;
smooth = 0;
x = 1349;
y = 108;
},
{
segmentType = line;
smooth = 1;
x = 871;
y = 1288;
},
{
smooth = 0;
x = 817;
y = 1420;
},
{
smooth = 0;
x = 777;
y = 1430;
},
{
segmentType = curve;
smooth = 1;
x = 710;
y = 1430;
},
{
smooth = 0;
x = 644;
y = 1430;
},
{
smooth = 0;
x = 596;
y = 1413;
},
{
segmentType = curve;
smooth = 1;
x = 542;
y = 1280;
},
{
segmentType = line;
smooth = 1;
x = 66;
y = 108;
},
{
smooth = 0;
x = 62;
y = 97;
},
{
smooth = 0;
x = 60;
y = 87;
},
{
segmentType = curve;
smooth = 1;
x = 60;
y = 78;
},
{
smooth = 0;
x = 60;
y = 32;
},
{
smooth = 0;
x = 106;
y = 0;
}
);
}
);
lib = {
};
name = A;
unicodes = (
);
width = 1414;
};
};
components = (
);
contours = {
};
lib = {
};
name = A;
points = {
};
segmentType = line;
unicodes = (
);
width = 1445;
x = 718;
y = 1232;
};
},
{
glyphname = AE;
lastChange = "2016-08-19 11:37:09 +0000";
layers = (
{
layerId = "E8E050E3-0A14-4B86-A80E-91CF38789E8F";
paths = (
{
closed = 1;
nodes = (
"917 0 LINE SMOOTH",
"943 0 OFFCURVE",
"957 14 OFFCURVE",
"957 36 CURVE SMOOTH",
"957 59 OFFCURVE",
"943 73 OFFCURVE",
"917 73 CURVE SMOOTH",
"641 73 LINE",
"514 662 LINE",
"500 632 LINE",
"917 632 LINE SMOOTH",
"943 632 OFFCURVE",
"957 646 OFFCURVE",
"957 669 CURVE SMOOTH",
"957 691 OFFCURVE",
"943 705 OFFCURVE",
"917 705 CURVE SMOOTH",
"466 705 LINE SMOOTH",
"447 705 OFFCURVE",
"428 699 OFFCURVE",
"416 682 CURVE SMOOTH",
"24 49 LINE SMOOTH",
"-7 1 OFFCURVE",
"67 -30 OFFCURVE",
"97 20 CURVE SMOOTH",
"473 636 LINE",
"442 636 LINE",
"571 35 LINE SMOOTH",
"575 15 OFFCURVE",
"590 0 OFFCURVE",
"613 0 CURVE SMOOTH"
);
},
{
closed = 1;
nodes = (
"572 180 LINE",
"548 250 LINE",
"178 250 LINE",
"148 180 LINE"
);
},
{
closed = 1;
nodes = (
"897 321 LINE SMOOTH",
"923 321 OFFCURVE",
"937 335 OFFCURVE",
"937 357 CURVE SMOOTH",
"937 380 OFFCURVE",
"923 394 OFFCURVE",
"897 394 CURVE SMOOTH",
"552 394 LINE",
"552 321 LINE"
);
}
);
width = 1008;
}
);
leftMetricsKey = "=A-10";
rightMetricsKey = E;
unicode = 00C6;
userData = {
com.typemytype.robofont.layerData = {
b = {
anchors = (
);
components = (
);
contours = (
);
lib = {
};
name = AE;
unicodes = (
);
width = 1976;
};
};
};
},
{
glyphname = B;
lastChange = "2016-08-19 11:37:09 +0000";
layers = (
{
layerId = "E8E050E3-0A14-4B86-A80E-91CF38789E8F";
paths = (
{
closed = 1;
nodes = (
"378 0 LINE SMOOTH",
"519 0 OFFCURVE",
"613 66 OFFCURVE",
"613 192 CURVE SMOOTH",
"613 289 OFFCURVE",
"556 348 OFFCURVE",
"473 365 CURVE",
"473 357 LINE",
"542 377 OFFCURVE",
"596 430 OFFCURVE",
"596 521 CURVE SMOOTH",
"596 638 OFFCURVE",
"505 705 OFFCURVE",
"363 705 CURVE SMOOTH",
"125 705 LINE SMOOTH",
"98 705 OFFCURVE",
"81 688 OFFCURVE",
"81 663 CURVE SMOOTH",
"81 42 LINE SMOOTH",
"81 17 OFFCURVE",
"98 0 OFFCURVE",
"125 0 CURVE SMOOTH"
);
},
{
closed = 1;
nodes = (
"167 321 LINE",
"368 321 LINE SMOOTH",
"467 321 OFFCURVE",
"527 286 OFFCURVE",
"527 196 CURVE SMOOTH",
"527 105 OFFCURVE",
"467 72 OFFCURVE",
"368 72 CURVE SMOOTH",
"167 72 LINE"
);
},
{
closed = 1;
nodes = (
"167 633 LINE",
"352 633 LINE SMOOTH",
"451 633 OFFCURVE",
"510 600 OFFCURVE",
"510 515 CURVE SMOOTH",
"510 430 OFFCURVE",
"451 394 OFFCURVE",
"352 394 CURVE SMOOTH",
"167 394 LINE"
);
}
);
width = 673;
}
);
leftMetricsKey = H;
unicode = 0042;
userData = {
anchors = (
);
b = {
};
com.typemytype.robofont.layerData = {
b = {
anchors = (
);
components = (
);
contours = (
{
points = (
{
segmentType = curve;
smooth = 1;
x = 266;
y = 0;
},
{
segmentType = line;
smooth = 1;
x = 1035;
y = 0;
},
{
smooth = 0;
x = 1084;
y = 0;
},
{
smooth = 0;
x = 1108;
y = 36;
},
{
segmentType = curve;
smooth = 1;
x = 1108;
y = 73;
},
{
smooth = 0;
x = 1108;
y = 109;
},
{
smooth = 0;
x = 1084;
y = 145;
},
{
segmentType = curve;
smooth = 1;
x = 1035;
y = 145;
},
{
segmentType = line;
smooth = 0;
x = 353;
y = 145;
},
{
segmentType = line;
smooth = 0;
x = 353;
y = 662;
},
{
segmentType = line;
smooth = 1;
x = 975;
y = 662;
},
{
smooth = 0;
x = 1024;
y = 662;
},
{
smooth = 0;
x = 1049;
y = 698;
},
{
segmentType = curve;
smooth = 1;
x = 1049;
y = 734;
},
{
smooth = 0;
x = 1049;
y = 770;
},
{
smooth = 0;
x = 1026;
y = 806;
},
{
segmentType = curve;
smooth = 1;
x = 975;
y = 806;
},
{
segmentType = line;
smooth = 0;
x = 353;
y = 806;
},
{
segmentType = line;
smooth = 0;
x = 353;
y = 1281;
},
{
segmentType = line;
smooth = 1;
x = 1007;
y = 1281;
},
{
smooth = 0;
x = 1056;
y = 1281;
},
{
smooth = 0;
x = 1080;
y = 1317;
},
{
segmentType = curve;
smooth = 1;
x = 1080;
y = 1354;
},
{
smooth = 0;
x = 1080;
y = 1390;
},
{
smooth = 0;
x = 1056;
y = 1426;
},
{
segmentType = curve;
smooth = 1;
x = 1007;
y = 1426;
},
{
segmentType = line;
smooth = 1;
x = 261;
y = 1426;
},
{
smooth = 0;
x = 213;
y = 1426;
},
{
smooth = 0;
x = 178;
y = 1383;
},
{
segmentType = curve;
smooth = 1;
x = 178;
y = 1340;
},
{
segmentType = line;
smooth = 1;
x = 178;
y = 86;
},
{
smooth = 0;
x = 178;
y = 41;
},
{
smooth = 0;
x = 222;
y = 0;
}
);
}
);
lib = {
};
name = B;
unicodes = (
);
width = 1292;
};
};
components = (
);
contours = {
};
lib = {
};
name = B;
points = {
};
segmentType = curve;
unicodes = (
);
width = 1395;
x = 676;
y = 1260;
};
},
{
glyphname = C;
lastChange = "2016-08-19 11:37:09 +0000";
layers = (
{
layerId = "E8E050E3-0A14-4B86-A80E-91CF38789E8F";
paths = (
{
closed = 1;
nodes = (
"471 -6 OFFCURVE",
"553 23 OFFCURVE",
"611 75 CURVE SMOOTH",
"623 86 OFFCURVE",
"628 98 OFFCURVE",
"628 111 CURVE SMOOTH",
"628 129 OFFCURVE",
"618 148 OFFCURVE",
"600 148 CURVE SMOOTH",
"589 148 OFFCURVE",
"581 143 OFFCURVE",
"570 136 CURVE SMOOTH",
"515 94 OFFCURVE",
"466 67 OFFCURVE",
"384 67 CURVE SMOOTH",
"229 67 OFFCURVE",
"145 172 OFFCURVE",
"145 353 CURVE SMOOTH",
"145 533 OFFCURVE",
"229 638 OFFCURVE",
"384 638 CURVE SMOOTH",
"466 638 OFFCURVE",
"515 611 OFFCURVE",
"570 569 CURVE SMOOTH",
"581 562 OFFCURVE",
"589 557 OFFCURVE",
"600 557 CURVE SMOOTH",
"617 557 OFFCURVE",
"628 576 OFFCURVE",
"628 594 CURVE SMOOTH",
"628 607 OFFCURVE",
"623 619 OFFCURVE",
"611 630 CURVE SMOOTH",
"553 682 OFFCURVE",
"471 711 OFFCURVE",
"382 711 CURVE SMOOTH",
"184 711 OFFCURVE",
"55 577 OFFCURVE",
"55 353 CURVE SMOOTH",
"55 128 OFFCURVE",
"184 -6 OFFCURVE",
"382 -6 CURVE SMOOTH"
);
}
);
width = 669;
}
);
leftMetricsKey = O;
unicode = 0043;
userData = {
anchors = (
);
b = {
};
com.typemytype.robofont.layerData = {
b = {
anchors = (
);
components = (
);
contours = (
);
lib = {
};
name = C;
unicodes = (
);
width = 1353.8900;
};
};
components = (
);
contours = (
);
lib = {
};
name = C;
unicodes = (
);
width = 1354;
};
},
{
glyphname = D;
lastChange = "2016-08-19 11:37:09 +0000";
layers = (
{
layerId = "E8E050E3-0A14-4B86-A80E-91CF38789E8F";
paths = (
{
closed = 1;
nodes = (
"320 0 LINE SMOOTH",
"546 0 OFFCURVE",
"675 128 OFFCURVE",
"675 353 CURVE SMOOTH",
"675 579 OFFCURVE",
"546 705 OFFCURVE",
"320 705 CURVE SMOOTH",
"125 705 LINE SMOOTH",
"98 705 OFFCURVE",
"81 688 OFFCURVE",
"81 663 CURVE SMOOTH",
"81 42 LINE SMOOTH",
"81 17 OFFCURVE",
"98 0 OFFCURVE",
"125 0 CURVE SMOOTH"
);
},
{
closed = 1;
nodes = (
"168 630 LINE",
"316 630 LINE SMOOTH",
"500 630 OFFCURVE",
"587 534 OFFCURVE",
"587 353 CURVE SMOOTH",
"587 172 OFFCURVE",
"500 75 OFFCURVE",
"316 75 CURVE SMOOTH",
"168 75 LINE"
);
}
);
width = 731;
}
);
leftMetricsKey = I;
rightMetricsKey = O;
unicode = 0044;
userData = {
anchors = (
);
b = {
};
com.typemytype.robofont.layerData = {
b = {
anchors = (
);
components = (
);
contours = (
{
points = (
{
segmentType = curve;
smooth = 1;
x = 266;
y = 0;
},
{
segmentType = line;
smooth = 1;
x = 1035;
y = 0;
},
{
smooth = 0;
x = 1084;
y = 0;
},
{
smooth = 0;
x = 1108;
y = 34;
},
{
segmentType = curve;
smooth = 1;
x = 1108;
y = 71;
},
{
smooth = 0;
x = 1108;
y = 107;
},
{
smooth = 0;
x = 1084;
y = 141;
},
{
segmentType = curve;
smooth = 1;
x = 1035;
y = 141;
},
{
segmentType = line;
smooth = 0;
x = 356;
y = 141;
},
{
segmentType = line;
smooth = 0;
x = 356;
y = 665;
},
{
segmentType = line;
smooth = 1;
x = 975;
y = 665;
},
{
smooth = 0;
x = 1024;
y = 665;
},
{
smooth = 0;
x = 1049;
y = 698;
},
{
segmentType = curve;
smooth = 1;
x = 1049;
y = 734;
},
{
smooth = 0;
x = 1049;
y = 770;
},
{
smooth = 0;
x = 1026;
y = 803;
},
{
segmentType = curve;
smooth = 1;
x = 975;
y = 803;
},
{
segmentType = line;
smooth = 0;
x = 356;
y = 803;
},
{
segmentType = line;
smooth = 0;
x = 356;
y = 1285;
},
{
segmentType = line;
smooth = 1;
x = 1007;
y = 1285;
},
{
smooth = 0;
x = 1056;
y = 1285;
},
{
smooth = 0;
x = 1080;
y = 1319;
},
{
segmentType = curve;
smooth = 1;
x = 1080;
y = 1356;
},
{
smooth = 0;
x = 1080;
y = 1392;
},
{
smooth = 0;
x = 1056;
y = 1426;
},
{
segmentType = curve;
smooth = 1;
x = 1007;
y = 1426;
},
{
segmentType = line;
smooth = 1;
x = 261;
y = 1426;
},
{
smooth = 0;
x = 213;
y = 1426;
},
{
smooth = 0;
x = 178;
y = 1383;
},
{
segmentType = curve;
smooth = 1;
x = 178;
y = 1340;
},
{
segmentType = line;
smooth = 1;
x = 178;
y = 86;
},
{
smooth = 0;
x = 178;
y = 41;
},
{
smooth = 0;
x = 222;
y = 0;
}
);
}
);
lib = {
};
name = D;
unicodes = (
);
width = 1499;
};
};
components = (
);
contours = (
);
lib = {
};
name = D;
unicodes = (
);
width = 1535;
};
},
{
glyphname = E;
lastChange = "2016-08-19 11:37:09 +0000";
layers = (
{
layerId = "E8E050E3-0A14-4B86-A80E-91CF38789E8F";
paths = (
{
closed = 1;
nodes = (
"498 0 LINE SMOOTH",
"524 0 OFFCURVE",
"538 14 OFFCURVE",
"538 36 CURVE SMOOTH",
"538 59 OFFCURVE",
"524 72 OFFCURVE",
"498 72 CURVE SMOOTH",
"167 72 LINE",
"167 321 LINE",
"478 321 LINE SMOOTH",
"504 321 OFFCURVE",
"518 335 OFFCURVE",
"518 357 CURVE SMOOTH",
"518 380 OFFCURVE",
"504 394 OFFCURVE",
"478 394 CURVE SMOOTH",
"167 394 LINE",
"167 633 LINE",
"498 633 LINE SMOOTH",
"524 633 OFFCURVE",
"538 646 OFFCURVE",
"538 669 CURVE SMOOTH",
"538 691 OFFCURVE",
"524 705 OFFCURVE",
"498 705 CURVE SMOOTH",
"125 705 LINE SMOOTH",
"98 705 OFFCURVE",
"81 688 OFFCURVE",
"81 663 CURVE SMOOTH",
"81 42 LINE SMOOTH",
"81 17 OFFCURVE",
"98 0 OFFCURVE",
"125 0 CURVE SMOOTH"
);
}
);
width = 590;
}
);
leftMetricsKey = H;
unicode = 0045;
userData = {
anchors = (
);
b = {
};
com.typemytype.robofont.layerData = {
b = {
anchors = (
);
components = (
);
contours = (
);
lib = {
};
name = E;
unicodes = (
);
width = 1234;
};
};
components = (
);
contours = (
);
lib = {
};
name = E;
unicodes = (
);
width = 1258;
};
},
{
glyphname = F;
lastChange = "2016-08-19 11:37:09 +0000";
layers = (
{
layerId = "E8E050E3-0A14-4B86-A80E-91CF38789E8F";
paths = (
{
closed = 1;
nodes = (
"151 -5 OFFCURVE",
"167 11 OFFCURVE",
"167 39 CURVE SMOOTH",
"167 320 LINE",
"468 320 LINE SMOOTH",
"494 320 OFFCURVE",
"508 334 OFFCURVE",
"508 357 CURVE SMOOTH",
"508 381 OFFCURVE",
"494 395 OFFCURVE",
"468 395 CURVE SMOOTH",
"167 395 LINE",
"167 631 LINE",
"488 631 LINE SMOOTH",
"514 631 OFFCURVE",
"528 645 OFFCURVE",
"528 668 CURVE SMOOTH",
"528 691 OFFCURVE",
"514 705 OFFCURVE",
"488 705 CURVE SMOOTH",
"125 705 LINE SMOOTH",
"98 705 OFFCURVE",
"81 688 OFFCURVE",
"81 663 CURVE SMOOTH",
"81 39 LINE SMOOTH",
"81 13 OFFCURVE",
"98 -5 OFFCURVE",
"124 -5 CURVE SMOOTH"
);
}
);
width = 563;
}
);
leftMetricsKey = H;
unicode = 0046;
userData = {
anchors = (
);
b = {
};
com.typemytype.robofont.layerData = {
b = {
anchors = (
);
components = (
);
contours = (
{
points = (
{
segmentType = curve;
smooth = 1;
x = 266;
y = 0;
},
{
segmentType = line;
smooth = 1;
x = 1035;
y = 0;
},
{
smooth = 0;
x = 1084;
y = 0;
},
{
smooth = 0;
x = 1108;
y = 34;
},
{
segmentType = curve;
smooth = 1;
x = 1108;
y = 71;
},
{
smooth = 0;
x = 1108;
y = 107;
},
{
smooth = 0;
x = 1084;
y = 141;
},
{
segmentType = curve;
smooth = 1;
x = 1035;
y = 141;
},
{
segmentType = line;
smooth = 0;
x = 353;
y = 141;
},
{
segmentType = line;
smooth = 0;
x = 353;
y = 665;
},
{
segmentType = line;
smooth = 1;
x = 975;
y = 665;
},
{
smooth = 0;
x = 1024;
y = 665;
},
{
smooth = 0;
x = 1049;
y = 698;
},
{
segmentType = curve;
smooth = 1;
x = 1049;
y = 734;
},
{
smooth = 0;
x = 1049;
y = 770;
},
{
smooth = 0;
x = 1026;
y = 803;
},
{
segmentType = curve;
smooth = 1;
x = 975;
y = 803;
},
{
segmentType = line;
smooth = 0;
x = 353;
y = 803;
},
{
segmentType = line;
smooth = 0;
x = 353;
y = 1285;
},
{
segmentType = line;
smooth = 1;
x = 1007;
y = 1285;
},
{
smooth = 0;
x = 1056;
y = 1285;
},
{
smooth = 0;
x = 1080;
y = 1319;
},
{
segmentType = curve;
smooth = 1;
x = 1080;
y = 1356;
},
{
smooth = 0;
x = 1080;
y = 1392;
},
{
smooth = 0;
x = 1056;
y = 1426;
},
{
segmentType = curve;
smooth = 1;
x = 1007;
y = 1426;
},
{
segmentType = line;
smooth = 1;
x = 261;
y = 1426;
},
{
smooth = 0;
x = 213;
y = 1426;
},
{
smooth = 0;
x = 178;
y = 1383;
},
{
segmentType = curve;
smooth = 1;
x = 178;
y = 1340;
},
{
segmentType = line;
smooth = 1;
x = 178;
y = 86;
},
{
smooth = 0;
x = 178;
y = 41;
},
{
smooth = 0;
x = 222;
y = 0;
}
);
}
);
lib = {
};
name = F;
unicodes = (
);
width = 1142;
};
};
components = (
);
contours = (
);
lib = {
};
name = F;
unicodes = (
);
width = 1175;
};
},
{
glyphname = G;
lastChange = "2016-08-19 11:37:09 +0000";
layers = (
{
layerId = "E8E050E3-0A14-4B86-A80E-91CF38789E8F";
paths = (
{
closed = 1;
nodes = (
"474 -6 OFFCURVE",
"555 8 OFFCURVE",
"604 29 CURVE SMOOTH",
"634 40 OFFCURVE",
"642 55 OFFCURVE",
"642 88 CURVE SMOOTH",
"642 333 LINE SMOOTH",
"642 354 OFFCURVE",
"629 369 OFFCURVE",
"606 369 CURVE SMOOTH",
"416 369 LINE SMOOTH",
"396 369 OFFCURVE",
"382 355 OFFCURVE",
"382 334 CURVE SMOOTH",
"382 313 OFFCURVE",
"396 300 OFFCURVE",
"416 300 CURVE SMOOTH",
"563 300 LINE",
"563 57 LINE",
"584 100 LINE",
"536 80 OFFCURVE",
"470 66 OFFCURVE",
"397 66 CURVE SMOOTH",
"232 66 OFFCURVE",
"145 167 OFFCURVE",
"145 353 CURVE SMOOTH",
"145 533 OFFCURVE",
"229 638 OFFCURVE",
"390 638 CURVE SMOOTH",
"475 638 OFFCURVE",
"523 611 OFFCURVE",
"578 569 CURVE SMOOTH",
"589 562 OFFCURVE",
"597 557 OFFCURVE",
"607 557 CURVE SMOOTH",
"625 557 OFFCURVE",
"636 576 OFFCURVE",
"636 594 CURVE SMOOTH",
"636 607 OFFCURVE",
"632 619 OFFCURVE",
"619 630 CURVE SMOOTH",
"562 684 OFFCURVE",
"479 711 OFFCURVE",
"388 711 CURVE SMOOTH",
"186 711 OFFCURVE",
"55 577 OFFCURVE",
"55 353 CURVE SMOOTH",
"55 128 OFFCURVE",
"182 -6 OFFCURVE",
"395 -6 CURVE SMOOTH"
);
}
);
width = 718;
}
);
leftMetricsKey = O;
unicode = 0047;
userData = {
anchors = (
);
b = {
};
com.typemytype.robofont.layerData = {
b = {
anchors = (
);
components = (
);
contours = (
{
points = (
{
segmentType = curve;
smooth = 1;
x = 783;
y = "-22";
},
{
smooth = 0;
x = 965;
y = "-22";
},
{
smooth = 0;
x = 1086;
y = 34;
},
{
segmentType = curve;
smooth = 1;
x = 1166;
y = 86;
},
{
smooth = 0;
x = 1270;
y = 154;
},
{
smooth = 0;
x = 1186;
y = 258;
},
{
segmentType = curve;
smooth = 1;
x = 1112;
y = 214;
},
{
smooth = 0;
x = 1024;
y = 162;
},
{
smooth = 0;
x = 939;
y = 120;
},
{
segmentType = curve;
smooth = 1;
x = 806;
y = 120;
},
{
smooth = 0;
x = 446;
y = 120;
},
{
smooth = 0;
x = 316;
y = 406;
},
{
segmentType = curve;
smooth = 1;
x = 316;
y = 706;
},
{
smooth = 0;
x = 316;
y = 1005;
},
{
smooth = 0;
x = 450;
y = 1296;
},
{
segmentType = curve;
smooth = 1;
x = 801;
y = 1296;
},
{
smooth = 0;
x = 980;
y = 1296;
},
{
smooth = 0;
x = 1053;
y = 1246;
},
{
segmentType = curve;
smooth = 1;
x = 1094;
y = 1225;
},
{
smooth = 0;
x = 1174;
y = 1184;
},
{
smooth = 0;
x = 1231;
y = 1300;
},
{
segmentType = curve;
smooth = 1;
x = 1156;
y = 1343;
},
{
smooth = 0;
x = 1106;
y = 1372;
},
{
smooth = 0;
x = 995;
y = 1438;
},
{
segmentType = curve;
smooth = 1;
x = 797;
y = 1438;
},
{
smooth = 0;
x = 359;
y = 1438;
},
{
smooth = 0;
x = 128;
y = 1093;
},
{
segmentType = curve;
smooth = 1;
x = 128;
y = 704;
},
{
smooth = 0;
x = 128;
y = 307;
},
{
smooth = 0;
x = 350;
y = "-22";
}
);
}
);
lib = {
};
name = G;
unicodes = (
);
width = 1448;
};
};
components = (
);
contours = (
);
lib = {
};
name = G;
unicodes = (
);
width = 1538;
};
},
{
glyphname = H;
lastChange = "2016-08-19 11:37:09 +0000";
layers = (
{
layerId = "E8E050E3-0A14-4B86-A80E-91CF38789E8F";
paths = (
{
closed = 1;
nodes = (
"650 -5 OFFCURVE",
"669 11 OFFCURVE",
"669 39 CURVE SMOOTH",
"669 666 LINE SMOOTH",
"669 694 OFFCURVE",
"650 710 OFFCURVE",
"626 710 CURVE SMOOTH",
"601 710 OFFCURVE",
"583 694 OFFCURVE",
"583 666 CURVE SMOOTH",
"583 39 LINE SMOOTH",
"583 11 OFFCURVE",
"601 -5 OFFCURVE",
"626 -5 CURVE SMOOTH"
);
},
{
closed = 1;
nodes = (
"149 -5 OFFCURVE",
"167 11 OFFCURVE",
"167 39 CURVE SMOOTH",
"167 666 LINE SMOOTH",
"167 694 OFFCURVE",
"149 710 OFFCURVE",
"124 710 CURVE SMOOTH",
"99 710 OFFCURVE",
"81 694 OFFCURVE",
"81 666 CURVE SMOOTH",
"81 39 LINE SMOOTH",
"81 11 OFFCURVE",
"99 -5 OFFCURVE",
"124 -5 CURVE SMOOTH"
);
},
{
closed = 1;
nodes = (
"618 320 LINE",
"618 395 LINE",
"120 395 LINE",
"120 320 LINE"
);
}
);
width = 750;
}
);
unicode = 0048;
userData = {
anchors = (
);
b = {
};
com.typemytype.robofont.layerData = {
b = {
anchors = (
);
components = (
);
contours = (
);
lib = {
};
name = H;
unicodes = (
);
width = 1464;
};
};
components = (
);
contours = (
);
lib = {
};
name = H;
unicodes = (
);
width = 1524;
};
},
{
glyphname = I;
lastChange = "2016-08-19 11:37:09 +0000";
layers = (
{
layerId = "E8E050E3-0A14-4B86-A80E-91CF38789E8F";
paths = (
{
closed = 1;
nodes = (
"150 -5 OFFCURVE",
"168 11 OFFCURVE",
"168 39 CURVE SMOOTH",
"168 666 LINE SMOOTH",
"168 694 OFFCURVE",
"150 710 OFFCURVE",
"124 710 CURVE SMOOTH",
"99 710 OFFCURVE",
"81 694 OFFCURVE",
"81 666 CURVE SMOOTH",
"81 39 LINE SMOOTH",
"81 11 OFFCURVE",
"99 -5 OFFCURVE",
"124 -5 CURVE SMOOTH"
);
}
);
width = 249;
}
);
leftMetricsKey = H;
rightMetricsKey = H;
unicode = 0049;
userData = {
anchors = (
);
b = {
};
com.typemytype.robofont.layerData = {
b = {
anchors = (
);
components = (
);
contours = (
);
lib = {
};
name = I;
unicodes = (
);
width = 592;
};
};
components = (
);
contours = (
);
lib = {
};
name = I;
unicodes = (
);
width = 637;
};
},
{
glyphname = J;
lastChange = "2016-08-19 11:37:09 +0000";
layers = (
{
layerId = "E8E050E3-0A14-4B86-A80E-91CF38789E8F";
paths = (
{
closed = 1;
nodes = (
"77 -3 LINE SMOOTH",
"192 4 OFFCURVE",
"248 65 OFFCURVE",
"248 189 CURVE SMOOTH",
"248 666 LINE SMOOTH",
"248 694 OFFCURVE",
"230 710 OFFCURVE",
"204 710 CURVE SMOOTH",
"181 710 OFFCURVE",
"161 694 OFFCURVE",
"161 666 CURVE SMOOTH",
"161 189 LINE SMOOTH",
"161 104 OFFCURVE",
"127 75 OFFCURVE",
"62 70 CURVE SMOOTH",
"32 68 LINE SMOOTH",
"5 66 OFFCURVE",
"-7 53 OFFCURVE",
"-7 31 CURVE SMOOTH",
"-7 7 OFFCURVE",
"12 -8 OFFCURVE",
"46 -5 CURVE SMOOTH"
);
}
);
width = 329;
}
);
rightMetricsKey = H;
unicode = 004A;
userData = {
anchors = (
);
b = {
};
com.typemytype.robofont.layerData = {
b = {
anchors = (
);
components = (
);
contours = (
);
lib = {
};
name = J;
unicodes = (
);
width = 1003;
};
};
components = (
);
contours = (
);
lib = {
};
name = J;
unicodes = (
);
width = 1126;
};
},
{
glyphname = K;
lastChange = "2016-08-19 11:37:09 +0000";
layers = (
{
layerId = "E8E050E3-0A14-4B86-A80E-91CF38789E8F";
paths = (
{
closed = 1;
nodes = (
"577 -29 OFFCURVE",
"635 28 OFFCURVE",
"593 66 CURVE SMOOTH",
"227 387 LINE",
"225 333 LINE",
"575 640 LINE SMOOTH",
"616 677 OFFCURVE",
"558 734 OFFCURVE",
"520 697 CURVE SMOOTH",
"140 358 LINE",
"537 9 LINE SMOOTH"
);
},
{
closed = 1;
nodes = (
"150 -5 OFFCURVE",
"168 11 OFFCURVE",
"168 39 CURVE SMOOTH",
"168 666 LINE SMOOTH",
"168 694 OFFCURVE",
"150 710 OFFCURVE",
"124 710 CURVE SMOOTH",
"99 710 OFFCURVE",
"81 694 OFFCURVE",
"81 666 CURVE SMOOTH",
"81 39 LINE SMOOTH",
"81 11 OFFCURVE",
"99 -5 OFFCURVE",
"124 -5 CURVE SMOOTH"
);
}
);
width = 625;
}
);
leftMetricsKey = H;
unicode = 004B;
userData = {
anchors = (
);
b = {
};
com.typemytype.robofont.layerData = {
b = {
anchors = (
);
components = (
);
contours = (
);
lib = {
};
name = K;
unicodes = (
);
width = 1210;
};
};
components = (
);
contours = (
);
lib = {
};
name = K;
unicodes = (
);
width = 1329;
};
},
{
glyphname = L;
lastChange = "2016-08-19 11:37:09 +0000";
layers = (
{
layerId = "E8E050E3-0A14-4B86-A80E-91CF38789E8F";
paths = (
{
closed = 1;
nodes = (
"487 0 LINE SMOOTH",
"513 0 OFFCURVE",
"527 14 OFFCURVE",
"527 38 CURVE SMOOTH",
"527 61 OFFCURVE",
"513 75 OFFCURVE",
"487 75 CURVE SMOOTH",
"168 75 LINE",
"168 666 LINE SMOOTH",
"168 694 OFFCURVE",
"151 710 OFFCURVE",
"124 710 CURVE SMOOTH",
"99 710 OFFCURVE",
"81 694 OFFCURVE",
"81 666 CURVE SMOOTH",
"81 40 LINE SMOOTH",
"81 16 OFFCURVE",
"99 0 OFFCURVE",
"124 0 CURVE SMOOTH"
);
}
);
width = 532;
}
);
leftMetricsKey = H;
unicode = 004C;
userData = {
anchors = (
);
b = {
};
com.typemytype.robofont.layerData = {
b = {
anchors = (
);
components = (
);
contours = (
{
points = (
{
segmentType = curve;
smooth = 1;
x = 266;
y = 0;
},
{
segmentType = line;
smooth = 1;
x = 1035;
y = 0;
},
{
smooth = 0;
x = 1084;
y = 0;
},
{
smooth = 0;
x = 1108;
y = 34;
},
{
segmentType = curve;
smooth = 1;
x = 1108;
y = 71;
},
{
smooth = 0;
x = 1108;
y = 107;
},
{
smooth = 0;
x = 1084;
y = 141;
},
{
segmentType = curve;
smooth = 1;
x = 1035;
y = 141;
},
{
segmentType = line;
smooth = 0;
x = 356;
y = 141;
},
{
segmentType = line;
smooth = 0;
x = 356;
y = 665;
},
{
segmentType = line;
smooth = 1;
x = 975;
y = 665;
},
{
smooth = 0;
x = 1024;
y = 665;
},
{
smooth = 0;
x = 1049;
y = 698;
},
{
segmentType = curve;
smooth = 1;
x = 1049;
y = 734;
},
{
smooth = 0;
x = 1049;
y = 770;
},
{
smooth = 0;
x = 1026;
y = 803;
},
{
segmentType = curve;
smooth = 1;
x = 975;
y = 803;
},
{
segmentType = line;
smooth = 0;
x = 356;
y = 803;
},
{
segmentType = line;
smooth = 0;
x = 356;
y = 1285;
},
{
segmentType = line;
smooth = 1;
x = 1007;
y = 1285;
},
{
smooth = 0;
x = 1056;
y = 1285;
},
{
smooth = 0;
x = 1080;
y = 1319;
},
{
segmentType = curve;
smooth = 1;
x = 1080;
y = 1356;
},
{
smooth = 0;
x = 1080;
y = 1392;
},
{
smooth = 0;
x = 1056;
y = 1426;
},
{
segmentType = curve;
smooth = 1;
x = 1007;
y = 1426;
},
{
segmentType = line;
smooth = 1;
x = 261;
y = 1426;
},
{
smooth = 0;
x = 213;
y = 1426;
},
{
smooth = 0;
x = 178;
y = 1383;
},
{
segmentType = curve;
smooth = 1;
x = 178;
y = 1340;
},
{
segmentType = line;
smooth = 1;
x = 178;
y = 86;
},
{
smooth = 0;
x = 178;
y = 41;
},
{
smooth = 0;
x = 222;
y = 0;
}
);
}
);
lib = {
};
name = L;
unicodes = (
);
width = 1095;
};
};
components = (
);
contours = (
);
lib = {
};
name = L;
unicodes = (
);
width = 1169;
};
},
{
glyphname = M;
lastChange = "2016-08-19 11:37:09 +0000";
layers = (
{
layerId = "E8E050E3-0A14-4B86-A80E-91CF38789E8F";
paths = (
{
closed = 1;
nodes = (
"146 -5 OFFCURVE",
"163 11 OFFCURVE",
"163 39 CURVE SMOOTH",
"163 591 LINE",
"132 588 LINE",
"375 132 LINE SMOOTH",
"386 110 OFFCURVE",
"399 101 OFFCURVE",
"418 101 CURVE SMOOTH",
"436 101 OFFCURVE",
"450 110 OFFCURVE",
"461 132 CURVE SMOOTH",
"699 587 LINE",
"671 591 LINE",
"671 39 LINE SMOOTH",
"671 11 OFFCURVE",
"688 -5 OFFCURVE",
"710 -5 CURVE SMOOTH",
"734 -5 OFFCURVE",
"751 11 OFFCURVE",
"751 39 CURVE SMOOTH",
"751 666 LINE SMOOTH",
"751 694 OFFCURVE",
"733 710 OFFCURVE",
"709 710 CURVE SMOOTH",
"694 710 OFFCURVE",
"680 704 OFFCURVE",
"667 679 CURVE SMOOTH",
"403 171 LINE",
"435 171 LINE",
"168 679 LINE SMOOTH",
"155 704 OFFCURVE",
"141 710 OFFCURVE",
"126 710 CURVE SMOOTH",
"101 710 OFFCURVE",
"83 694 OFFCURVE",
"83 666 CURVE SMOOTH",
"83 39 LINE SMOOTH",
"83 11 OFFCURVE",
"100 -5 OFFCURVE",
"123 -5 CURVE SMOOTH"
);
}
);
width = 834;
}
);
leftMetricsKey = "=H+2";
rightMetricsKey = "=H+2";
unicode = 004D;
userData = {
anchors = (
);
b = {
};
com.typemytype.robofont.layerData = {
b = {
anchors = (
);
components = (
);
contours = (
);
lib = {
};
name = M;
unicodes = (
);
width = 1899;
};
};
components = (
);
contours = (
);
lib = {
};
name = M;
unicodes = (
);
width = 1984;
};
},
{
glyphname = N;
lastChange = "2016-08-19 11:37:09 +0000";
layers = (
{
layerId = "E8E050E3-0A14-4B86-A80E-91CF38789E8F";
paths = (
{
closed = 1;
nodes = (
"146 -5 OFFCURVE",
"164 11 OFFCURVE",
"164 39 CURVE SMOOTH",
"164 598 LINE",
"138 594 LINE",
"573 13 LINE SMOOTH",
"582 1 OFFCURVE",
"593 -5 OFFCURVE",
"608 -5 CURVE SMOOTH",
"631 -5 OFFCURVE",
"650 11 OFFCURVE",
"650 39 CURVE SMOOTH",
"650 666 LINE SMOOTH",
"650 694 OFFCURVE",
"632 710 OFFCURVE",
"608 710 CURVE SMOOTH",
"585 710 OFFCURVE",
"566 694 OFFCURVE",
"566 666 CURVE SMOOTH",
"566 107 LINE",
"593 111 LINE",
"159 692 LINE SMOOTH",
"149 704 OFFCURVE",
"139 710 OFFCURVE",
"124 710 CURVE SMOOTH",
"99 710 OFFCURVE",
"81 694 OFFCURVE",
"81 666 CURVE SMOOTH",
"81 39 LINE SMOOTH",
"81 11 OFFCURVE",
"98 -5 OFFCURVE",
"123 -5 CURVE SMOOTH"
);
}
);
width = 731;
}
);
leftMetricsKey = H;
rightMetricsKey = H;
unicode = 004E;
userData = {
anchors = (
);
b = {
};
com.typemytype.robofont.layerData = {
b = {
anchors = (
);
components = (
);
contours = (
);
lib = {
};
name = N;
unicodes = (
);
width = 1499;
};
};
components = (
);
contours = (
);
lib = {
};
name = N;
unicodes = (
);
width = 1557;
};
},
{
glyphname = O;
lastChange = "2016-08-19 11:37:09 +0000";
layers = (
{
layerId = "E8E050E3-0A14-4B86-A80E-91CF38789E8F";
paths = (
{
closed = 1;
nodes = (
"571 -6 OFFCURVE",
"701 128 OFFCURVE",
"701 353 CURVE SMOOTH",
"701 579 OFFCURVE",
"571 711 OFFCURVE",
"378 711 CURVE SMOOTH",
"184 711 OFFCURVE",
"55 579 OFFCURVE",
"55 352 CURVE SMOOTH",
"55 128 OFFCURVE",
"184 -6 OFFCURVE",
"378 -6 CURVE SMOOTH"
);
},
{
closed = 1;
nodes = (
"228 67 OFFCURVE",
"144 172 OFFCURVE",
"144 353 CURVE SMOOTH",
"144 534 OFFCURVE",
"227 638 OFFCURVE",
"378 638 CURVE SMOOTH",
"530 638 OFFCURVE",
"612 534 OFFCURVE",
"612 353 CURVE SMOOTH",
"612 172 OFFCURVE",
"529 67 OFFCURVE",
"378 67 CURVE SMOOTH"
);
}
);
width = 756;
}
);
unicode = 004F;
userData = {
anchors = (
);
b = {
};
com.typemytype.robofont.guides = (
);
com.typemytype.robofont.layerData = {
b = {
anchors = (
);
components = (
);
contours = (
);
lib = {
};
name = O;
unicodes = (
);
width = 1597;
};
};
components = (
);
contours = (
);
lib = {
};
name = O;
unicodes = (
);
width = 1604;
};
},
{
glyphname = OE;
lastChange = "2016-08-19 11:37:09 +0000";
layers = (
{
layerId = "E8E050E3-0A14-4B86-A80E-91CF38789E8F";
paths = (
{
closed = 1;
nodes = (
"960 0 LINE SMOOTH",
"986 0 OFFCURVE",
"1000 14 OFFCURVE",
"1000 36 CURVE SMOOTH",
"1000 59 OFFCURVE",
"986 72 OFFCURVE",
"960 72 CURVE SMOOTH",
"628 72 LINE",
"628 321 LINE",
"940 321 LINE SMOOTH",
"966 321 OFFCURVE",
"980 335 OFFCURVE",
"980 357 CURVE SMOOTH",
"980 380 OFFCURVE",
"966 394 OFFCURVE",
"940 394 CURVE SMOOTH",
"628 394 LINE",
"628 633 LINE",
"960 633 LINE SMOOTH",
"986 633 OFFCURVE",
"1000 646 OFFCURVE",
"1000 669 CURVE SMOOTH",
"1000 691 OFFCURVE",
"986 705 OFFCURVE",
"960 705 CURVE SMOOTH",
"410 705 LINE SMOOTH",
"184 705 OFFCURVE",
"55 579 OFFCURVE",
"55 353 CURVE SMOOTH",
"55 128 OFFCURVE",
"184 0 OFFCURVE",
"410 0 CURVE SMOOTH"
);
},
{
closed = 1;
nodes = (
"230 74 OFFCURVE",
"144 172 OFFCURVE",
"144 353 CURVE SMOOTH",
"144 534 OFFCURVE",
"230 631 OFFCURVE",
"415 631 CURVE SMOOTH",
"543 631 LINE",
"543 74 LINE",
"415 74 LINE SMOOTH"
);
}
);
width = 1052;
}
);
leftMetricsKey = O;
rightMetricsKey = E;
unicode = 0152;
},
{
glyphname = P;
lastChange = "2016-08-19 11:37:09 +0000";
layers = (
{
layerId = "E8E050E3-0A14-4B86-A80E-91CF38789E8F";
paths = (
{
closed = 1;
nodes = (
"151 -5 OFFCURVE",
"168 11 OFFCURVE",
"168 39 CURVE SMOOTH",
"168 288 LINE",
"364 288 LINE SMOOTH",
"502 288 OFFCURVE",
"597 363 OFFCURVE",
"597 497 CURVE SMOOTH",
"597 632 OFFCURVE",
"506 705 OFFCURVE",
"364 705 CURVE SMOOTH",
"125 705 LINE SMOOTH",
"98 705 OFFCURVE",
"81 688 OFFCURVE",
"81 663 CURVE SMOOTH",
"81 39 LINE SMOOTH",
"81 11 OFFCURVE",
"99 -5 OFFCURVE",
"124 -5 CURVE SMOOTH"
);
},
{
closed = 1;
nodes = (
"168 633 LINE",
"353 633 LINE SMOOTH",
"451 633 OFFCURVE",
"512 595 OFFCURVE",
"512 497 CURVE SMOOTH",
"512 401 OFFCURVE",
"451 360 OFFCURVE",
"353 360 CURVE SMOOTH",
"168 360 LINE"
);
}
);
width = 639;
}
);
leftMetricsKey = H;
unicode = 0050;
userData = {
anchors = (
);
b = {
};
com.typemytype.robofont.layerData = {
b = {
anchors = (
);
components = (
);
contours = (
{
points = (
{
segmentType = curve;
smooth = 1;
x = 266;
y = 0;
},
{
segmentType = line;
smooth = 1;
x = 1035;
y = 0;
},
{
smooth = 0;
x = 1084;
y = 0;
},
{
smooth = 0;
x = 1108;
y = 34;
},
{
segmentType = curve;
smooth = 1;
x = 1108;
y = 71;
},
{
smooth = 0;
x = 1108;
y = 107;
},
{
smooth = 0;
x = 1084;
y = 141;
},
{
segmentType = curve;
smooth = 1;
x = 1035;
y = 141;
},
{
segmentType = line;
smooth = 0;
x = 356;
y = 141;
},
{
segmentType = line;
smooth = 0;
x = 356;
y = 665;
},
{
segmentType = line;
smooth = 1;
x = 975;
y = 665;
},
{
smooth = 0;
x = 1024;
y = 665;
},
{
smooth = 0;
x = 1049;
y = 698;
},
{
segmentType = curve;
smooth = 1;
x = 1049;
y = 734;
},
{
smooth = 0;
x = 1049;
y = 770;
},
{
smooth = 0;
x = 1026;
y = 803;
},
{
segmentType = curve;
smooth = 1;
x = 975;
y = 803;
},
{
segmentType = line;
smooth = 0;
x = 356;
y = 803;
},
{
segmentType = line;
smooth = 0;
x = 356;
y = 1285;
},
{
segmentType = line;
smooth = 1;
x = 1007;
y = 1285;
},
{
smooth = 0;
x = 1056;
y = 1285;
},
{
smooth = 0;
x = 1080;
y = 1319;
},
{
segmentType = curve;
smooth = 1;
x = 1080;
y = 1356;
},
{
smooth = 0;
x = 1080;
y = 1392;
},
{
smooth = 0;
x = 1056;
y = 1426;
},
{
segmentType = curve;
smooth = 1;
x = 1007;
y = 1426;
},
{
segmentType = line;
smooth = 1;
x = 261;
y = 1426;
},
{
smooth = 0;
x = 213;
y = 1426;
},
{
smooth = 0;
x = 178;
y = 1383;
},
{
segmentType = curve;
smooth = 1;
x = 178;
y = 1340;
},
{
segmentType = line;
smooth = 1;
x = 178;
y = 86;
},
{
smooth = 0;
x = 178;
y = 41;
},
{
smooth = 0;
x = 222;
y = 0;
}
);
}
);
lib = {
};
name = P;
unicodes = (
);
width = 1201;
};
};
components = (
);
contours = (
);
lib = {
};
name = P;
unicodes = (
);
width = 1319;
};
},
{
glyphname = Thorn;
lastChange = "2016-08-19 11:37:09 +0000";
layers = (
{
layerId = "E8E050E3-0A14-4B86-A80E-91CF38789E8F";
paths = (
{
closed = 1;
nodes = (
"363 166 LINE SMOOTH",
"502 166 OFFCURVE",
"597 237 OFFCURVE",
"597 359 CURVE SMOOTH",
"597 482 OFFCURVE",
"507 551 OFFCURVE",
"363 551 CURVE SMOOTH",
"153 551 LINE",
"153 478 LINE",
"353 478 LINE SMOOTH",
"452 478 OFFCURVE",
"512 445 OFFCURVE",
"512 359 CURVE SMOOTH",
"512 274 OFFCURVE",
"452 238 OFFCURVE",
"353 238 CURVE SMOOTH",
"153 238 LINE",
"153 166 LINE"
);
},
{
closed = 1;
nodes = (
"149 -5 OFFCURVE",
"167 11 OFFCURVE",
"167 39 CURVE SMOOTH",
"167 666 LINE SMOOTH",
"167 694 OFFCURVE",
"149 710 OFFCURVE",
"124 710 CURVE SMOOTH",
"99 710 OFFCURVE",
"81 694 OFFCURVE",
"81 666 CURVE SMOOTH",
"81 39 LINE SMOOTH",
"81 11 OFFCURVE",
"99 -5 OFFCURVE",
"124 -5 CURVE SMOOTH"
);
}
);
width = 639;
}
);
leftMetricsKey = H;
unicode = 00DE;
},
{
glyphname = Q;
lastChange = "2016-08-19 11:37:09 +0000";
layers = (
{
components = (
{
name = O;
}
);
layerId = "E8E050E3-0A14-4B86-A80E-91CF38789E8F";
paths = (
{
closed = 1;
nodes = (
"578 -210 OFFCURVE",
"656 -178 OFFCURVE",
"623 -127 CURVE SMOOTH",
"579 -53 LINE SMOOTH",
"548 -2 OFFCURVE",
"517 24 OFFCURVE",
"447 24 CURVE",
"379 -6 LINE",
"441 -6 OFFCURVE",
"473 -33 OFFCURVE",
"489 -62 CURVE SMOOTH",
"547 -158 LINE SMOOTH"
);
}
);
width = 756;
}
);
leftMetricsKey = O;
widthMetricsKey = O;
unicode = 0051;
userData = {
anchors = (
);
b = {
};
com.typemytype.robofont.layerData = {
b = {
anchors = (
);
components = (
);
contours = (
);
lib = {
};
name = Q;
unicodes = (
);
width = 1597;
};
};
components = (
);
contours = (
);
lib = {
};
name = Q;
unicodes = (
);
width = 1604;
};
},
{
glyphname = R;
lastChange = "2016-08-19 11:37:09 +0000";
layers = (
{
layerId = "E8E050E3-0A14-4B86-A80E-91CF38789E8F";
paths = (
{
closed = 1;
nodes = (
"150 -5 OFFCURVE",
"167 11 OFFCURVE",
"167 39 CURVE SMOOTH",
"167 297 LINE",
"289 297 LINE SMOOTH",
"352 297 OFFCURVE",
"383 279 OFFCURVE",
"417 226 CURVE SMOOTH",
"548 20 LINE SMOOTH",
"581 -33 OFFCURVE",
"657 2 OFFCURVE",
"625 51 CURVE SMOOTH",
"512 230 LINE SMOOTH",
"474 289 OFFCURVE",
"439 313 OFFCURVE",
"372 313 CURVE",
"378 302 LINE",
"513 302 OFFCURVE",
"611 368 OFFCURVE",
"611 503 CURVE SMOOTH",
"611 638 OFFCURVE",
"520 705 OFFCURVE",
"377 705 CURVE SMOOTH",
"125 705 LINE SMOOTH",
"98 705 OFFCURVE",
"81 688 OFFCURVE",
"81 663 CURVE SMOOTH",
"81 39 LINE SMOOTH",
"81 11 OFFCURVE",
"99 -5 OFFCURVE",
"124 -5 CURVE SMOOTH"
);
},
{
closed = 1;
nodes = (
"167 633 LINE",
"367 633 LINE SMOOTH",
"466 633 OFFCURVE",
"525 600 OFFCURVE",
"525 503 CURVE SMOOTH",
"525 405 OFFCURVE",
"466 369 OFFCURVE",
"367 369 CURVE SMOOTH",
"167 369 LINE"
);
}
);
width = 674;
}
);
leftMetricsKey = H;
unicode = 0052;
userData = {
anchors = (
);
b = {
};
com.typemytype.robofont.guides = (
);
com.typemytype.robofont.layerData = {
b = {
anchors = (
);
components = (
);
contours = (
{
points = (
{
segmentType = curve;
smooth = 1;
x = 267;
y = 0;
},
{
smooth = 0;
x = 311;
y = 0;
},
{
smooth = 0;
x = 356;
y = 27;
},
{
segmentType = curve;
smooth = 1;
x = 356;
y = 84;
},
{
segmentType = line;
smooth = 0;
x = 356;
y = 628;
},
{
segmentType = line;
smooth = 1;
x = 669;
y = 628;
},
{
smooth = 0;
x = 962;
y = 628;
},
{
smooth = 0;
x = 1182;
y = 722;
},
{
segmentType = curve;
smooth = 1;
x = 1182;
y = 1026;
},
{
smooth = 0;
x = 1182;
y = 1324;
},
{
smooth = 0;
x = 993;
y = 1426;
},
{
segmentType = curve;
smooth = 1;
x = 684;
y = 1426;
},
{
segmentType = line;
smooth = 1;
x = 268;
y = 1426;
},
{
smooth = 0;
x = 217;
y = 1426;
},
{
smooth = 0;
x = 178;
y = 1387;
},
{
segmentType = curve;
smooth = 1;
x = 178;
y = 1339;
},
{
segmentType = line;
smooth = 1;
x = 178;
y = 84;
},
{
smooth = 0;
x = 178;
y = 28;
},
{
smooth = 0;
x = 222;
y = 0;
}
);
},
{
points = (
{
segmentType = line;
smooth = 0;
x = 356;
y = 764;
},
{
segmentType = line;
smooth = 0;
x = 356;
y = 1285;
},
{
segmentType = line;
smooth = 1;
x = 684;
y = 1285;
},
{
smooth = 0;
x = 914;
y = 1285;
},
{
smooth = 0;
x = 1008;
y = 1210;
},
{
segmentType = curve;
smooth = 1;
x = 1008;
y = 1026;
},
{
smooth = 0;
x = 1008;
y = 838;
},
{
smooth = 0;
x = 901;
y = 764;
},
{
segmentType = curve;
smooth = 1;
x = 670;
y = 764;
}
);
}
);
lib = {
};
name = R;
unicodes = (
);
width = 1363;
};
};
components = (
);
contours = (
);
lib = {
};
name = R;
unicodes = (
);
width = 1408;
};
},
{
glyphname = S;
lastChange = "2016-08-19 11:37:09 +0000";
layers = (
{
layerId = "E8E050E3-0A14-4B86-A80E-91CF38789E8F";
paths = (
{
closed = 1;
nodes = (
"464 -6 OFFCURVE",
"566 77 OFFCURVE",
"566 192 CURVE SMOOTH",
"566 440 OFFCURVE",
"140 326 OFFCURVE",
"140 511 CURVE SMOOTH",
"140 594 OFFCURVE",
"208 638 OFFCURVE",
"312 638 CURVE SMOOTH",
"398 638 OFFCURVE",
"446 611 OFFCURVE",
"502 569 CURVE SMOOTH",
"513 562 OFFCURVE",
"521 557 OFFCURVE",
"531 557 CURVE SMOOTH",
"548 557 OFFCURVE",
"560 576 OFFCURVE",
"560 594 CURVE SMOOTH",
"560 608 OFFCURVE",
"555 619 OFFCURVE",
"543 630 CURVE SMOOTH",
"486 684 OFFCURVE",
"403 711 OFFCURVE",
"311 711 CURVE SMOOTH",
"142 711 OFFCURVE",
"52 615 OFFCURVE",
"52 508 CURVE SMOOTH",
"52 252 OFFCURVE",
"478 358 OFFCURVE",
"478 190 CURVE SMOOTH",
"478 110 OFFCURVE",
"416 67 OFFCURVE",
"304 67 CURVE SMOOTH",
"217 67 OFFCURVE",
"151 93 OFFCURVE",
"94 136 CURVE SMOOTH",
"84 143 OFFCURVE",
"75 148 OFFCURVE",
"65 148 CURVE SMOOTH",
"47 148 OFFCURVE",
"36 129 OFFCURVE",
"36 111 CURVE SMOOTH",
"36 98 OFFCURVE",
"41 86 OFFCURVE",
"53 75 CURVE SMOOTH",
"109 23 OFFCURVE",
"211 -6 OFFCURVE",
"305 -6 CURVE SMOOTH"
);
}
);
width = 607;
}
);
unicode = 0053;
userData = {
anchors = (
);
b = {
};
com.typemytype.robofont.layerData = {
b = {
anchors = (
);
components = (
);
contours = (
);
lib = {
};
name = S;
unicodes = (
);
width = 1274;
};
};
components = (
);
contours = (
);
lib = {
};
name = S;
unicodes = (
);
width = 1317;
};
},
{
glyphname = T;
lastChange = "2016-08-19 11:37:09 +0000";
layers = (
{
layerId = "E8E050E3-0A14-4B86-A80E-91CF38789E8F";
paths = (
{
closed = 1;
nodes = (
"324 -5 OFFCURVE",
"342 11 OFFCURVE",
"342 39 CURVE SMOOTH",
"342 630 LINE",
"553 630 LINE SMOOTH",
"579 630 OFFCURVE",
"594 644 OFFCURVE",
"594 667 CURVE SMOOTH",
"594 691 OFFCURVE",
"579 705 OFFCURVE",
"553 705 CURVE SMOOTH",
"43 705 LINE SMOOTH",
"17 705 OFFCURVE",
"3 691 OFFCURVE",
"3 667 CURVE SMOOTH",
"3 644 OFFCURVE",
"17 630 OFFCURVE",
"43 630 CURVE SMOOTH",
"255 630 LINE",
"255 39 LINE SMOOTH",
"255 11 OFFCURVE",
"273 -5 OFFCURVE",
"298 -5 CURVE SMOOTH"
);
}
);
width = 597;
}
);
unicode = 0054;
userData = {
anchors = (
);
b = {
};
com.typemytype.robofont.layerData = {
b = {
anchors = (
);
components = (
);
contours = (
{
points = (
{
segmentType = curve;
smooth = 1;
x = 581;
y = 0;
},
{
segmentType = line;
smooth = 1;
x = 1350;
y = 0;
},
{
smooth = 0;
x = 1399;
y = 0;
},
{
smooth = 0;
x = 1423;
y = 34;
},
{
segmentType = curve;
smooth = 1;
x = 1423;
y = 71;
},
{
smooth = 0;
x = 1423;
y = 107;
},
{
smooth = 0;
x = 1399;
y = 141;
},
{
segmentType = curve;
smooth = 1;
x = 1350;
y = 141;
},
{
segmentType = line;
smooth = 0;
x = 671;
y = 141;
},
{
segmentType = line;
smooth = 0;
x = 671;
y = 665;
},
{
segmentType = line;
smooth = 1;
x = 1290;
y = 665;
},
{
smooth = 0;
x = 1339;
y = 665;
},
{
smooth = 0;
x = 1364;
y = 698;
},
{
segmentType = curve;
smooth = 1;
x = 1364;
y = 734;
},
{
smooth = 0;
x = 1364;
y = 770;
},
{
smooth = 0;
x = 1341;
y = 803;
},
{
segmentType = curve;
smooth = 1;
x = 1290;
y = 803;
},
{
segmentType = line;
smooth = 0;
x = 671;
y = 803;
},
{
segmentType = line;
smooth = 0;
x = 671;
y = 1285;
},
{
segmentType = line;
smooth = 1;
x = 1322;
y = 1285;
},
{
smooth = 0;
x = 1371;
y = 1285;
},
{
smooth = 0;
x = 1395;
y = 1319;
},
{
segmentType = curve;
smooth = 1;
x = 1395;
y = 1356;
},
{
smooth = 0;
x = 1395;
y = 1392;
},
{
smooth = 0;
x = 1371;
y = 1426;
},
{
segmentType = curve;
smooth = 1;
x = 1322;
y = 1426;
},
{
segmentType = line;
smooth = 1;
x = 576;
y = 1426;
},
{
smooth = 0;
x = 528;
y = 1426;
},
{
smooth = 0;
x = 493;
y = 1383;
},
{
segmentType = curve;
smooth = 1;
x = 493;
y = 1340;
},
{
segmentType = line;
smooth = 1;
x = 493;
y = 86;
},
{
smooth = 0;
x = 493;
y = 41;
},
{
smooth = 0;
x = 537;
y = 0;
}
);
}
);
lib = {
};
name = T;
unicodes = (
);
width = 1158;
};
};
components = (
);
contours = (
);
lib = {
};
name = T;
unicodes = (
);
width = 1199;
};
},
{
glyphname = U;
lastChange = "2016-08-19 11:37:09 +0000";
layers = (
{
layerId = "E8E050E3-0A14-4B86-A80E-91CF38789E8F";
paths = (
{
closed = 1;
nodes = (
"526 -6 OFFCURVE",
"640 76 OFFCURVE",
"640 277 CURVE SMOOTH",
"640 666 LINE SMOOTH",
"640 694 OFFCURVE",
"621 710 OFFCURVE",
"597 710 CURVE SMOOTH",
"573 710 OFFCURVE",
"554 694 OFFCURVE",
"554 666 CURVE SMOOTH",
"554 270 LINE SMOOTH",
"554 123 OFFCURVE",
"474 67 OFFCURVE",
"358 67 CURVE SMOOTH",
"241 67 OFFCURVE",
"163 123 OFFCURVE",
"163 270 CURVE SMOOTH",
"163 666 LINE SMOOTH",
"163 694 OFFCURVE",
"144 710 OFFCURVE",
"120 710 CURVE SMOOTH",
"95 710 OFFCURVE",
"77 694 OFFCURVE",
"77 666 CURVE SMOOTH",
"77 277 LINE SMOOTH",
"77 75 OFFCURVE",
"189 -6 OFFCURVE",
"358 -6 CURVE SMOOTH"
);
}
);
width = 716;
}
);
unicode = 0055;
userData = {
anchors = (
);
b = {
};
com.typemytype.robofont.layerData = {
b = {
anchors = (
);
components = (
);
contours = (
);
lib = {
};
name = U;
unicodes = (
);
width = 1490;
};
};
components = (
);
contours = (
);
lib = {
};
name = U;
unicodes = (
);
width = 1513;
};
},
{
glyphname = V;
lastChange = "2016-08-19 11:37:09 +0000";
layers = (
{
layerId = "E8E050E3-0A14-4B86-A80E-91CF38789E8F";
paths = (
{
closed = 1;
nodes = (
"320 -15 OFFCURVE",
"378 -13 OFFCURVE",
"394 25 CURVE SMOOTH",
"680 657 LINE SMOOTH",
"702 704 OFFCURVE",
"625 735 OFFCURVE",
"603 686 CURVE SMOOTH",
"332 75 LINE",
"366 75 LINE",
"94 686 LINE SMOOTH",
"72 735 OFFCURVE",
"-5 704 OFFCURVE",
"16 657 CURVE SMOOTH",
"301 25 LINE SMOOTH"
);
}
);
width = 696;
}
);
unicode = 0056;
userData = {
anchors = (
);
b = {
};
com.typemytype.robofont.guides = (
);
com.typemytype.robofont.layerData = {
b = {
anchors = (
);
components = (
);
contours = (
{
points = (
{
segmentType = curve;
smooth = 1;
x = 644;
y = "-5";
},
{
smooth = 0;
x = 712;
y = "-5";
},
{
smooth = 0;
x = 764;
y = 38;
},
{
segmentType = curve;
smooth = 1;
x = 793;
y = 117;
},
{
segmentType = line;
smooth = 1;
x = 1243;
y = 1324;
},
{
smooth = 0;
x = 1247;
y = 1335;
},
{
smooth = 0;
x = 1248;
y = 1342;
},
{
segmentType = curve;
smooth = 1;
x = 1248;
y = 1351;
},
{
smooth = 0;
x = 1248;
y = 1395;
},
{
smooth = 0;
x = 1203;
y = 1427;
},
{
segmentType = curve;
smooth = 1;
x = 1160;
y = 1427;
},
{
smooth = 0;
x = 1125;
y = 1427;
},
{
smooth = 0;
x = 1090;
y = 1408;
},
{
segmentType = curve;
smooth = 1;
x = 1076;
y = 1369;
},
{
segmentType = line;
smooth = 0;
x = 651;
y = 192;
},
{
segmentType = line;
smooth = 0;
x = 650;
y = 190;
},
{
segmentType = line;
smooth = 1;
x = 214;
y = 1370;
},
{
smooth = 0;
x = 200;
y = 1407;
},
{
smooth = 0;
x = 170;
y = 1427;
},
{
segmentType = curve;
smooth = 1;
x = 135;
y = 1427;
},
{
smooth = 0;
x = 90;
y = 1427;
},
{
smooth = 0;
x = 43;
y = 1392;
},
{
segmentType = curve;
smooth = 1;
x = 43;
y = 1344;
},
{
smooth = 0;
x = 43;
y = 1336;
},
{
smooth = 0;
x = 44;
y = 1326;
},
{
segmentType = curve;
smooth = 0;
x = 48;
y = 1318;
},
{
segmentType = line;
smooth = 1;
x = 501;
y = 117;
},
{
smooth = 0;
x = 532;
y = 35;
},
{
smooth = 0;
x = 581;
y = "-5";
}
);
}
);
lib = {
};
name = V;
unicodes = (
);
width = 1289;
};
};
components = (
);
contours = (
);
lib = {
};
name = V;
unicodes = (
);
width = 1365;
};
},
{
glyphname = W;
lastChange = "2016-08-19 11:37:09 +0000";
layers = (
{
layerId = "E8E050E3-0A14-4B86-A80E-91CF38789E8F";
paths = (
{
closed = 1;
nodes = (
"285 -16 OFFCURVE",
"347 -15 OFFCURVE",
"361 25 CURVE SMOOTH",
"567 599 LINE",
"545 599 LINE",
"749 25 LINE SMOOTH",
"764 -16 OFFCURVE",
"826 -15 OFFCURVE",
"840 25 CURVE SMOOTH",
"1066 657 LINE SMOOTH",
"1086 710 OFFCURVE",
"1007 733 OFFCURVE",
"989 684 CURVE SMOOTH",
"778 80 LINE",
"808 80 LINE",
"599 677 LINE SMOOTH",
"584 719 OFFCURVE",
"530 719 OFFCURVE",
"515 678 CURVE SMOOTH",
"302 80 LINE",
"334 80 LINE",
"123 684 LINE SMOOTH",
"106 733 OFFCURVE",
"25 710 OFFCURVE",
"45 657 CURVE SMOOTH",
"270 25 LINE SMOOTH"
);
}
);
width = 1110;
}
);
unicode = 0057;
userData = {
anchors = (
);
b = {
};
com.typemytype.robofont.layerData = {
b = {
anchors = (
);
components = (
);
contours = (
);
lib = {
};
name = W;
unicodes = (
);
width = 2126;
};
};
components = (
);
contours = (
);
lib = {
};
name = W;
unicodes = (
);
width = 2070;
};
},
{
glyphname = X;
lastChange = "2016-08-19 11:37:09 +0000";
layers = (
{
layerId = "E8E050E3-0A14-4B86-A80E-91CF38789E8F";
paths = (
{
closed = 1;
nodes = (
"327 298 LINE",
"378 359 LINE",
"603 643 LINE SMOOTH",
"638 685 OFFCURVE",
"576 737 OFFCURVE",
"542 694 CURVE SMOOTH",
"327 421 LINE",
"277 359 LINE",
"39 62 LINE SMOOTH",
"4 20 OFFCURVE",
"66 -31 OFFCURVE",
"100 11 CURVE SMOOTH"
);
},
{
closed = 1;
nodes = (
"587 -31 OFFCURVE",
"649 20 OFFCURVE",
"614 62 CURVE SMOOTH",
"378 359 LINE",
"327 421 LINE",
"111 694 LINE SMOOTH",
"77 736 OFFCURVE",
"16 685 OFFCURVE",
"51 643 CURVE SMOOTH",
"277 359 LINE",
"327 298 LINE",
"553 11 LINE SMOOTH"
);
}
);
width = 653;
}
);
unicode = 0058;
userData = {
anchors = (
);
b = {
};
com.typemytype.robofont.layerData = {
b = {
anchors = (
);
components = (
);
contours = (
{
points = (
{
segmentType = curve;
smooth = 1;
x = 151;
y = 0;
},
{
smooth = 0;
x = 176;
y = 0;
},
{
smooth = 0;
x = 201;
y = 12;
},
{
segmentType = curve;
smooth = 1;
x = 222;
y = 41;
},
{
segmentType = line;
smooth = 0;
x = 641;
y = 616;
},
{
segmentType = line;
smooth = 0;
x = 746;
y = 734;
},
{
segmentType = line;
smooth = 1;
x = 1175;
y = 1310;
},
{
smooth = 0;
x = 1186;
y = 1325;
},
{
smooth = 0;
x = 1190;
y = 1338;
},
{
segmentType = curve;
smooth = 1;
x = 1190;
y = 1353;
},
{
smooth = 0;
x = 1190;
y = 1393;
},
{
smooth = 0;
x = 1153;
y = 1426;
},
{
segmentType = curve;
smooth = 1;
x = 1110;
y = 1426;
},
{
smooth = 0;
x = 1083;
y = 1426;
},
{
smooth = 0;
x = 1058;
y = 1414;
},
{
segmentType = curve;
smooth = 1;
x = 1037;
y = 1385;
},
{
segmentType = line;
smooth = 0;
x = 648;
y = 844;
},
{
segmentType = line;
smooth = 0;
x = 542;
y = 732;
},
{
segmentType = line;
smooth = 1;
x = 84;
y = 121;
},
{
smooth = 0;
x = 73;
y = 106;
},
{
smooth = 0;
x = 68;
y = 91;
},
{
segmentType = curve;
smooth = 1;
x = 68;
y = 76;
},
{
smooth = 0;
x = 68;
y = 35;
},
{
smooth = 0;
x = 108;
y = 0;
}
);
},
{
points = (
{
segmentType = curve;
smooth = 1;
x = 1104;
y = 0;
},
{
smooth = 0;
x = 1151;
y = 0;
},
{
smooth = 0;
x = 1200;
y = 40;
},
{
segmentType = curve;
smooth = 1;
x = 1200;
y = 85;
},
{
smooth = 0;
x = 1200;
y = 98;
},
{
smooth = 0;
x = 1195;
y = 113;
},
{
segmentType = curve;
smooth = 0;
x = 1186;
y = 126;
},
{
segmentType = line;
smooth = 0;
x = 272;
y = 1385;
},
{
smooth = 0;
x = 252;
y = 1414;
},
{
smooth = 0;
x = 225;
y = 1426;
},
{
segmentType = curve;
smooth = 1;
x = 197;
y = 1426;
},
{
smooth = 0;
x = 149;
y = 1426;
},
{
smooth = 0;
x = 100;
y = 1388;
},
{
segmentType = curve;
smooth = 1;
x = 100;
y = 1343;
},
{
smooth = 0;
x = 100;
y = 1328;
},
{
smooth = 0;
x = 105;
y = 1315;
},
{
segmentType = curve;
smooth = 0;
x = 114;
y = 1303;
},
{
segmentType = line;
smooth = 0;
x = 1033;
y = 40;
},
{
smooth = 0;
x = 1052;
y = 13;
},
{
smooth = 0;
x = 1076;
y = 0;
}
);
}
);
lib = {
};
name = X;
unicodes = (
);
width = 1274;
};
};
components = (
);
contours = (
);
lib = {
};
name = X;
unicodes = (
);
width = 1322;
};
},
{
glyphname = Y;
lastChange = "2016-08-19 11:37:09 +0000";
layers = (
{
layerId = "E8E050E3-0A14-4B86-A80E-91CF38789E8F";
paths = (
{
closed = 1;
nodes = (
"328 -5 OFFCURVE",
"346 11 OFFCURVE",
"346 39 CURVE SMOOTH",
"346 374 LINE",
"327 315 LINE",
"587 643 LINE SMOOTH",
"621 685 OFFCURVE",
"560 737 OFFCURVE",
"526 694 CURVE SMOOTH",
"292 395 LINE",
"313 395 LINE",
"79 694 LINE SMOOTH",
"44 737 OFFCURVE",
"-16 685 OFFCURVE",
"18 643 CURVE SMOOTH",
"278 315 LINE",
"259 374 LINE",
"259 39 LINE SMOOTH",
"259 11 OFFCURVE",
"277 -5 OFFCURVE",
"302 -5 CURVE SMOOTH"
);
}
);
width = 604;
}
);
unicode = 0059;
userData = {
anchors = (
);
b = {
};
com.typemytype.robofont.guides = (
);
com.typemytype.robofont.layerData = {
b = {
anchors = (
);
components = (
);
contours = (
{
points = (
{
segmentType = curve;
smooth = 1;
x = 641;
y = 0;
},
{
smooth = 0;
x = 685;
y = 0;
},
{
smooth = 0;
x = 730;
y = 29;
},
{
segmentType = curve;
smooth = 1;
x = 730;
y = 85;
},
{
segmentType = line;
smooth = 0;
x = 730;
y = 1285;
},
{
segmentType = line;
smooth = 1;
x = 1115;
y = 1285;
},
{
smooth = 0;
x = 1164;
y = 1285;
},
{
smooth = 0;
x = 1190;
y = 1319;
},
{
segmentType = curve;
smooth = 1;
x = 1190;
y = 1355;
},
{
smooth = 0;
x = 1190;
y = 1392;
},
{
smooth = 0;
x = 1166;
y = 1426;
},
{
segmentType = curve;
smooth = 1;
x = 1115;
y = 1426;
},
{
segmentType = line;
smooth = 1;
x = 160;
y = 1426;
},
{
smooth = 0;
x = 111;
y = 1426;
},
{
smooth = 0;
x = 86;
y = 1392;
},
{
segmentType = curve;
smooth = 1;
x = 86;
y = 1355;
},
{
smooth = 0;
x = 86;
y = 1319;
},
{
smooth = 0;
x = 111;
y = 1285;
},
{
segmentType = curve;
smooth = 1;
x = 160;
y = 1285;
},
{
segmentType = line;
smooth = 0;
x = 552;
y = 1285;
},
{
segmentType = line;
smooth = 1;
x = 552;
y = 85;
},
{
smooth = 0;
x = 552;
y = 29;
},
{
smooth = 0;
x = 596;
y = 0;
}
);
}
);
lib = {
};
name = Y;
unicodes = (
);
width = 1278;
};
};
components = (
);
contours = (
);
lib = {
};
name = Y;
unicodes = (
);
width = 1321;
};
},
{
glyphname = Z;
lastChange = "2016-08-19 11:37:09 +0000";
layers = (
{
layerId = "E8E050E3-0A14-4B86-A80E-91CF38789E8F";
paths = (
{
closed = 1;
nodes = (
"520 0 LINE SMOOTH",
"546 0 OFFCURVE",
"560 14 OFFCURVE",
"560 37 CURVE SMOOTH",
"560 60 OFFCURVE",
"546 74 OFFCURVE",
"520 74 CURVE SMOOTH",
"114 74 LINE",
"114 30 LINE",
"538 636 LINE SMOOTH",
"561 668 OFFCURVE",
"547 705 OFFCURVE",
"509 705 CURVE SMOOTH",
"75 705 LINE SMOOTH",
"49 705 OFFCURVE",
"35 691 OFFCURVE",
"35 668 CURVE SMOOTH",
"35 645 OFFCURVE",
"49 631 OFFCURVE",
"75 631 CURVE SMOOTH",
"469 631 LINE",
"469 675 LINE",
"46 70 LINE SMOOTH",
"22 37 OFFCURVE",
"36 0 OFFCURVE",
"75 0 CURVE SMOOTH"
);
}
);
width = 585;
}
);
unicode = 005A;
userData = {
anchors = (
);
b = {
};
com.typemytype.robofont.layerData = {
b = {
anchors = (
);
components = (
);
contours = (
{
points = (
{
segmentType = curve;
smooth = 1;
x = 266;
y = 0;
},
{
segmentType = line;
smooth = 1;
x = 1035;
y = 0;
},
{
smooth = 0;
x = 1084;
y = 0;
},
{
smooth = 0;
x = 1108;
y = 34;
},
{
segmentType = curve;
smooth = 1;
x = 1108;
y = 71;
},
{
smooth = 0;
x = 1108;
y = 107;
},
{
smooth = 0;
x = 1084;
y = 141;
},
{
segmentType = curve;
smooth = 1;
x = 1035;
y = 141;
},
{
segmentType = line;
smooth = 0;
x = 356;
y = 141;
},
{
segmentType = line;
smooth = 0;
x = 356;
y = 665;
},
{
segmentType = line;
smooth = 1;
x = 975;
y = 665;
},
{
smooth = 0;
x = 1024;
y = 665;
},
{
smooth = 0;
x = 1049;
y = 698;
},
{
segmentType = curve;
smooth = 1;
x = 1049;
y = 734;
},
{
smooth = 0;
x = 1049;
y = 770;
},
{
smooth = 0;
x = 1026;
y = 803;
},
{
segmentType = curve;
smooth = 1;
x = 975;
y = 803;
},
{
segmentType = line;
smooth = 0;
x = 356;
y = 803;
},
{
segmentType = line;
smooth = 0;
x = 356;
y = 1285;
},
{
segmentType = line;
smooth = 1;
x = 1007;
y = 1285;
},
{
smooth = 0;
x = 1056;
y = 1285;
},
{
smooth = 0;
x = 1080;
y = 1319;
},
{
segmentType = curve;
smooth = 1;
x = 1080;
y = 1356;
},
{
smooth = 0;
x = 1080;
y = 1392;
},
{
smooth = 0;
x = 1056;
y = 1426;
},
{
segmentType = curve;
smooth = 1;
x = 1007;
y = 1426;
},
{
segmentType = line;
smooth = 1;
x = 261;
y = 1426;
},
{
smooth = 0;
x = 213;
y = 1426;
},
{
smooth = 0;
x = 178;
y = 1383;
},
{
segmentType = curve;
smooth = 1;
x = 178;
y = 1340;
},
{
segmentType = line;
smooth = 1;
x = 178;
y = 86;
},
{
smooth = 0;
x = 178;
y = 41;
},
{
smooth = 0;
x = 222;
y = 0;
}
);
}
);
lib = {
};
name = Z;
unicodes = (
);
width = 1165;
};
};
components = (
);
contours = (
);
lib = {
};
name = Z;
unicodes = (
);
width = 1222;
};
},
{
glyphname = a;
lastChange = "2016-08-26 11:53:37 +0000";
layers = (
{
layerId = "E8E050E3-0A14-4B86-A80E-91CF38789E8F";
paths = (
{
closed = 1;
nodes = (
"227 383 LINE",
"209 383 LINE",
"372 12 LINE SMOOTH",
"385 -17 OFFCURVE",
"430 1 OFFCURVE",
"416 30 CURVE SMOOTH",
"245 409 LINE SMOOTH",
"236 432 OFFCURVE",
"200 433 OFFCURVE",
"190 409 CURVE SMOOTH",
"18 30 LINE SMOOTH",
"5 1 OFFCURVE",
"50 -17 OFFCURVE",
"63 12 CURVE SMOOTH"
);
},
{
closed = 1;
nodes = (
"346 108 LINE",
"328 150 LINE",
"106 150 LINE",
"88 108 LINE"
);
}
);
width = 435;
}
);
unicode = 0061;
userData = {
anchors = (
);
b = {
};
com.typemytype.robofont.layerData = {
b = {
anchors = (
);
components = (
);
contours = (
{
points = (
{
segmentType = line;
smooth = 0;
x = 403;
y = 502;
},
{
segmentType = line;
smooth = 0;
x = 703;
y = 1275;
},
{
segmentType = line;
smooth = 0;
x = 705;
y = 1275;
},
{
segmentType = line;
smooth = 0;
x = 1004;
y = 502;
}
);
},
{
points = (
{
segmentType = curve;
smooth = 1;
x = 150;
y = 0;
},
{
smooth = 0;
x = 181;
y = 0;
},
{
smooth = 0;
x = 214;
y = 15;
},
{
segmentType = curve;
smooth = 1;
x = 229;
y = 53;
},
{
segmentType = line;
smooth = 0;
x = 356;
y = 373;
},
{
segmentType = line;
smooth = 0;
x = 1051;
y = 373;
},
{
segmentType = line;
smooth = 1;
x = 1179;
y = 53;
},
{
smooth = 0;
x = 1193;
y = 17;
},
{
smooth = 0;
x = 1228;
y = 0;
},
{
segmentType = curve;
smooth = 1;
x = 1260;
y = 0;
},
{
smooth = 0;
x = 1306;
y = 0;
},
{
smooth = 0;
x = 1354;
y = 31;
},
{
segmentType = curve;
smooth = 1;
x = 1354;
y = 80;
},
{
smooth = 0;
x = 1354;
y = 87;
},
{
smooth = 0;
x = 1352;
y = 97;
},
{
segmentType = curve;
smooth = 0;
x = 1349;
y = 108;
},
{
segmentType = line;
smooth = 1;
x = 871;
y = 1288;
},
{
smooth = 0;
x = 817;
y = 1420;
},
{
smooth = 0;
x = 777;
y = 1430;
},
{
segmentType = curve;
smooth = 1;
x = 710;
y = 1430;
},
{
smooth = 0;
x = 644;
y = 1430;
},
{
smooth = 0;
x = 596;
y = 1413;
},
{
segmentType = curve;
smooth = 1;
x = 542;
y = 1280;
},
{
segmentType = line;
smooth = 1;
x = 66;
y = 108;
},
{
smooth = 0;
x = 62;
y = 97;
},
{
smooth = 0;
x = 60;
y = 87;
},
{
segmentType = curve;
smooth = 1;
x = 60;
y = 78;
},
{
smooth = 0;
x = 60;
y = 32;
},
{
smooth = 0;
x = 106;
y = 0;
}
);
}
);
lib = {
};
name = A;
unicodes = (
);
width = 1414;
};
};
components = (
);
contours = {
};
lib = {
};
name = A;
points = {
};
segmentType = line;
unicodes = (
);
width = 1445;
x = 718;
y = 1232;
};
},
{
glyphname = b;
lastChange = "2016-08-26 11:53:37 +0000";
layers = (
{
layerId = "E8E050E3-0A14-4B86-A80E-91CF38789E8F";
paths = (
{
closed = 1;
nodes = (
"259 0 LINE SMOOTH",
"344 0 OFFCURVE",
"400 40 OFFCURVE",
"400 115 CURVE SMOOTH",
"400 174 OFFCURVE",
"367 209 OFFCURVE",
"317 219 CURVE",
"317 214 LINE",
"358 227 OFFCURVE",
"390 258 OFFCURVE",
"390 312 CURVE SMOOTH",
"390 383 OFFCURVE",
"335 423 OFFCURVE",
"250 423 CURVE SMOOTH",
"107 423 LINE SMOOTH",
"92 423 OFFCURVE",
"81 413 OFFCURVE",
"81 397 CURVE SMOOTH",
"81 26 LINE SMOOTH",
"81 10 OFFCURVE",
"92 0 OFFCURVE",
"107 0 CURVE SMOOTH"
);
},
{
closed = 1;
nodes = (
"133 193 LINE",
"253 193 LINE SMOOTH",
"313 193 OFFCURVE",
"349 171 OFFCURVE",
"349 117 CURVE SMOOTH",
"349 63 OFFCURVE",
"313 43 OFFCURVE",
"253 43 CURVE SMOOTH",
"133 43 LINE"
);
},
{
closed = 1;
nodes = (
"133 380 LINE",
"244 380 LINE SMOOTH",
"303 380 OFFCURVE",
"339 360 OFFCURVE",
"339 309 CURVE SMOOTH",
"339 258 OFFCURVE",
"303 236 OFFCURVE",
"244 236 CURVE SMOOTH",
"133 236 LINE"
);
}
);
width = 437;
}
);
leftMetricsKey = H;
unicode = 0062;
userData = {
anchors = (
);
b = {
};
com.typemytype.robofont.layerData = {
b = {
anchors = (
);
components = (
);
contours = (
{
points = (
{
segmentType = curve;
smooth = 1;
x = 266;
y = 0;
},
{
segmentType = line;
smooth = 1;
x = 1035;
y = 0;
},
{
smooth = 0;
x = 1084;
y = 0;
},
{
smooth = 0;
x = 1108;
y = 36;
},
{
segmentType = curve;
smooth = 1;
x = 1108;
y = 73;
},
{
smooth = 0;
x = 1108;
y = 109;
},
{
smooth = 0;
x = 1084;
y = 145;
},
{
segmentType = curve;
smooth = 1;
x = 1035;
y = 145;
},
{
segmentType = line;
smooth = 0;
x = 353;
y = 145;
},
{
segmentType = line;
smooth = 0;
x = 353;
y = 662;
},
{
segmentType = line;
smooth = 1;
x = 975;
y = 662;
},
{
smooth = 0;
x = 1024;
y = 662;
},
{
smooth = 0;
x = 1049;
y = 698;
},
{
segmentType = curve;
smooth = 1;
x = 1049;
y = 734;
},
{
smooth = 0;
x = 1049;
y = 770;
},
{
smooth = 0;
x = 1026;
y = 806;
},
{
segmentType = curve;
smooth = 1;
x = 975;
y = 806;
},
{
segmentType = line;
smooth = 0;
x = 353;
y = 806;
},
{
segmentType = line;
smooth = 0;
x = 353;
y = 1281;
},
{
segmentType = line;
smooth = 1;
x = 1007;
y = 1281;
},
{
smooth = 0;
x = 1056;
y = 1281;
},
{
smooth = 0;
x = 1080;
y = 1317;
},
{
segmentType = curve;
smooth = 1;
x = 1080;
y = 1354;
},
{
smooth = 0;
x = 1080;
y = 1390;
},
{
smooth = 0;
x = 1056;
y = 1426;
},
{
segmentType = curve;
smooth = 1;
x = 1007;
y = 1426;
},
{
segmentType = line;
smooth = 1;
x = 261;
y = 1426;
},
{
smooth = 0;
x = 213;
y = 1426;
},
{
smooth = 0;
x = 178;
y = 1383;
},
{
segmentType = curve;
smooth = 1;
x = 178;
y = 1340;
},
{
segmentType = line;
smooth = 1;
x = 178;
y = 86;
},
{
smooth = 0;
x = 178;
y = 41;
},
{
smooth = 0;
x = 222;
y = 0;
}
);
}
);
lib = {
};
name = B;
unicodes = (
);
width = 1292;
};
};
components = (
);
contours = {
};
lib = {
};
name = B;
points = {
};
segmentType = curve;
unicodes = (
);
width = 1395;
x = 676;
y = 1260;
};
},
{
glyphname = c;
lastChange = "2016-08-26 11:53:37 +0000";
layers = (
{
layerId = "E8E050E3-0A14-4B86-A80E-91CF38789E8F";
paths = (
{
closed = 1;
nodes = (
"305 -4 OFFCURVE",
"355 13 OFFCURVE",
"389 45 CURVE SMOOTH",
"397 51 OFFCURVE",
"399 59 OFFCURVE",
"399 66 CURVE SMOOTH",
"399 77 OFFCURVE",
"393 89 OFFCURVE",
"382 89 CURVE SMOOTH",
"376 89 OFFCURVE",
"371 86 OFFCURVE",
"365 82 CURVE SMOOTH",
"331 56 OFFCURVE",
"302 40 OFFCURVE",
"253 40 CURVE SMOOTH",
"160 40 OFFCURVE",
"110 103 OFFCURVE",
"110 212 CURVE SMOOTH",
"110 320 OFFCURVE",
"160 383 OFFCURVE",
"253 383 CURVE SMOOTH",
"302 383 OFFCURVE",
"331 367 OFFCURVE",
"365 341 CURVE SMOOTH",
"371 337 OFFCURVE",
"376 334 OFFCURVE",
"382 334 CURVE SMOOTH",
"393 334 OFFCURVE",
"399 346 OFFCURVE",
"399 357 CURVE SMOOTH",
"399 364 OFFCURVE",
"397 372 OFFCURVE",
"389 378 CURVE SMOOTH",
"355 410 OFFCURVE",
"305 427 OFFCURVE",
"252 427 CURVE SMOOTH",
"133 427 OFFCURVE",
"55 346 OFFCURVE",
"55 212 CURVE SMOOTH",
"55 77 OFFCURVE",
"133 -4 OFFCURVE",
"252 -4 CURVE SMOOTH"
);
}
);
width = 424;
}
);
leftMetricsKey = O;
unicode = 0063;
userData = {
anchors = (
);
b = {
};
com.typemytype.robofont.layerData = {
b = {
anchors = (
);
components = (
);
contours = (
);
lib = {
};
name = C;
unicodes = (
);
width = 1353.8900;
};
};
components = (
);
contours = (
);
lib = {
};
name = C;
unicodes = (
);
width = 1354;
};
},
{
glyphname = d;
lastChange = "2016-08-26 11:53:37 +0000";
layers = (
{
layerId = "E8E050E3-0A14-4B86-A80E-91CF38789E8F";
paths = (
{
closed = 1;
nodes = (
"225 0 LINE SMOOTH",
"360 0 OFFCURVE",
"438 77 OFFCURVE",
"438 212 CURVE SMOOTH",
"438 347 OFFCURVE",
"360 423 OFFCURVE",
"225 423 CURVE SMOOTH",
"107 423 LINE SMOOTH",
"92 423 OFFCURVE",
"81 413 OFFCURVE",
"81 397 CURVE SMOOTH",
"81 26 LINE SMOOTH",
"81 10 OFFCURVE",
"92 0 OFFCURVE",
"107 0 CURVE SMOOTH"
);
},
{
closed = 1;
nodes = (
"133 378 LINE",
"222 378 LINE SMOOTH",
"333 378 OFFCURVE",
"385 320 OFFCURVE",
"385 212 CURVE SMOOTH",
"385 103 OFFCURVE",
"333 45 OFFCURVE",
"222 45 CURVE SMOOTH",
"133 45 LINE"
);
}
);
width = 493;
}
);
leftMetricsKey = I;
rightMetricsKey = O;
unicode = 0064;
userData = {
anchors = (
);
b = {
};
com.typemytype.robofont.layerData = {
b = {
anchors = (
);
components = (
);
contours = (
{
points = (
{
segmentType = curve;
smooth = 1;
x = 266;
y = 0;
},
{
segmentType = line;
smooth = 1;
x = 1035;
y = 0;
},
{
smooth = 0;
x = 1084;
y = 0;
},
{
smooth = 0;
x = 1108;
y = 34;
},
{
segmentType = curve;
smooth = 1;
x = 1108;
y = 71;
},
{
smooth = 0;
x = 1108;
y = 107;
},
{
smooth = 0;
x = 1084;
y = 141;
},
{
segmentType = curve;
smooth = 1;
x = 1035;
y = 141;
},
{
segmentType = line;
smooth = 0;
x = 356;
y = 141;
},
{
segmentType = line;
smooth = 0;
x = 356;
y = 665;
},
{
segmentType = line;
smooth = 1;
x = 975;
y = 665;
},
{
smooth = 0;
x = 1024;
y = 665;
},
{
smooth = 0;
x = 1049;
y = 698;
},
{
segmentType = curve;
smooth = 1;
x = 1049;
y = 734;
},
{
smooth = 0;
x = 1049;
y = 770;
},
{
smooth = 0;
x = 1026;
y = 803;
},
{
segmentType = curve;
smooth = 1;
x = 975;
y = 803;
},
{
segmentType = line;
smooth = 0;
x = 356;
y = 803;
},
{
segmentType = line;
smooth = 0;
x = 356;
y = 1285;
},
{
segmentType = line;
smooth = 1;
x = 1007;
y = 1285;
},
{
smooth = 0;
x = 1056;
y = 1285;
},
{
smooth = 0;
x = 1080;
y = 1319;
},
{
segmentType = curve;
smooth = 1;
x = 1080;
y = 1356;
},
{
smooth = 0;
x = 1080;
y = 1392;
},
{
smooth = 0;
x = 1056;
y = 1426;
},
{
segmentType = curve;
smooth = 1;
x = 1007;
y = 1426;
},
{
segmentType = line;
smooth = 1;
x = 261;
y = 1426;
},
{
smooth = 0;
x = 213;
y = 1426;
},
{
smooth = 0;
x = 178;
y = 1383;
},
{
segmentType = curve;
smooth = 1;
x = 178;
y = 1340;
},
{
segmentType = line;
smooth = 1;
x = 178;
y = 86;
},
{
smooth = 0;
x = 178;
y = 41;
},
{
smooth = 0;
x = 222;
y = 0;
}
);
}
);
lib = {
};
name = D;
unicodes = (
);
width = 1499;
};
};
components = (
);
contours = (
);
lib = {
};
name = D;
unicodes = (
);
width = 1535;
};
},
{
glyphname = e;
lastChange = "2016-08-26 11:53:37 +0000";
layers = (
{
layerId = "E8E050E3-0A14-4B86-A80E-91CF38789E8F";
paths = (
{
closed = 1;
nodes = (
"331 0 LINE SMOOTH",
"347 0 OFFCURVE",
"355 8 OFFCURVE",
"355 22 CURVE SMOOTH",
"355 36 OFFCURVE",
"347 43 OFFCURVE",
"331 43 CURVE SMOOTH",
"133 43 LINE",
"133 193 LINE",
"319 193 LINE SMOOTH",
"335 193 OFFCURVE",
"343 201 OFFCURVE",
"343 215 CURVE SMOOTH",
"343 228 OFFCURVE",
"335 236 OFFCURVE",
"319 236 CURVE SMOOTH",
"133 236 LINE",
"133 380 LINE",
"331 380 LINE SMOOTH",
"347 380 OFFCURVE",
"355 387 OFFCURVE",
"355 401 CURVE SMOOTH",
"355 415 OFFCURVE",
"347 423 OFFCURVE",
"331 423 CURVE SMOOTH",
"107 423 LINE SMOOTH",
"92 423 OFFCURVE",
"81 413 OFFCURVE",
"81 397 CURVE SMOOTH",
"81 26 LINE SMOOTH",
"81 10 OFFCURVE",
"92 0 OFFCURVE",
"107 0 CURVE SMOOTH"
);
}
);
width = 387;
}
);
leftMetricsKey = H;
unicode = 0065;
userData = {
anchors = (
);
b = {
};
com.typemytype.robofont.layerData = {
b = {
anchors = (
);
components = (
);
contours = (
);
lib = {
};
name = E;
unicodes = (
);
width = 1234;
};
};
components = (
);
contours = (
);
lib = {
};
name = E;
unicodes = (
);
width = 1258;
};
},
{
glyphname = f;
lastChange = "2016-08-26 11:53:37 +0000";
layers = (
{
layerId = "E8E050E3-0A14-4B86-A80E-91CF38789E8F";
paths = (
{
closed = 1;
nodes = (
"123 -3 OFFCURVE",
"133 6 OFFCURVE",
"133 23 CURVE SMOOTH",
"133 192 LINE",
"313 192 LINE SMOOTH",
"329 192 OFFCURVE",
"337 201 OFFCURVE",
"337 215 CURVE SMOOTH",
"337 229 OFFCURVE",
"329 237 OFFCURVE",
"313 237 CURVE SMOOTH",
"133 237 LINE",
"133 379 LINE",
"325 379 LINE SMOOTH",
"341 379 OFFCURVE",
"349 387 OFFCURVE",
"349 401 CURVE SMOOTH",
"349 415 OFFCURVE",
"341 423 OFFCURVE",
"325 423 CURVE SMOOTH",
"107 423 LINE SMOOTH",
"92 423 OFFCURVE",
"81 413 OFFCURVE",
"81 397 CURVE SMOOTH",
"81 23 LINE SMOOTH",
"81 8 OFFCURVE",
"92 -3 OFFCURVE",
"107 -3 CURVE SMOOTH"
);
}
);
width = 370;
}
);
leftMetricsKey = H;
unicode = 0066;
userData = {
anchors = (
);
b = {
};
com.typemytype.robofont.layerData = {
b = {
anchors = (
);
components = (
);
contours = (
{
points = (
{
segmentType = curve;
smooth = 1;
x = 266;
y = 0;
},
{
segmentType = line;
smooth = 1;
x = 1035;
y = 0;
},
{
smooth = 0;
x = 1084;
y = 0;
},
{
smooth = 0;
x = 1108;
y = 34;
},
{
segmentType = curve;
smooth = 1;
x = 1108;
y = 71;
},
{
smooth = 0;
x = 1108;
y = 107;
},
{
smooth = 0;
x = 1084;
y = 141;
},
{
segmentType = curve;
smooth = 1;
x = 1035;
y = 141;
},
{
segmentType = line;
smooth = 0;
x = 353;
y = 141;
},
{
segmentType = line;
smooth = 0;
x = 353;
y = 665;
},
{
segmentType = line;
smooth = 1;
x = 975;
y = 665;
},
{
smooth = 0;
x = 1024;
y = 665;
},
{
smooth = 0;
x = 1049;
y = 698;
},
{
segmentType = curve;
smooth = 1;
x = 1049;
y = 734;
},
{
smooth = 0;
x = 1049;
y = 770;
},
{
smooth = 0;
x = 1026;
y = 803;
},
{
segmentType = curve;
smooth = 1;
x = 975;
y = 803;
},
{
segmentType = line;
smooth = 0;
x = 353;
y = 803;
},
{
segmentType = line;
smooth = 0;
x = 353;
y = 1285;
},
{
segmentType = line;
smooth = 1;
x = 1007;
y = 1285;
},
{
smooth = 0;
x = 1056;
y = 1285;
},
{
smooth = 0;
x = 1080;
y = 1319;
},
{
segmentType = curve;
smooth = 1;
x = 1080;
y = 1356;
},
{
smooth = 0;
x = 1080;
y = 1392;
},
{
smooth = 0;
x = 1056;
y = 1426;
},
{
segmentType = curve;
smooth = 1;
x = 1007;
y = 1426;
},
{
segmentType = line;
smooth = 1;
x = 261;
y = 1426;
},
{
smooth = 0;
x = 213;
y = 1426;
},
{
smooth = 0;
x = 178;
y = 1383;
},
{
segmentType = curve;
smooth = 1;
x = 178;
y = 1340;
},
{
segmentType = line;
smooth = 1;
x = 178;
y = 86;
},
{
smooth = 0;
x = 178;
y = 41;
},
{
smooth = 0;
x = 222;
y = 0;
}
);
}
);
lib = {
};
name = F;
unicodes = (
);
width = 1142;
};
};
components = (
);
contours = (
);
lib = {
};
name = F;
unicodes = (
);
width = 1175;
};
},
{
glyphname = g;
lastChange = "2016-08-26 11:53:37 +0000";
layers = (
{
layerId = "E8E050E3-0A14-4B86-A80E-91CF38789E8F";
paths = (
{
closed = 1;
nodes = (
"306 -4 OFFCURVE",
"355 5 OFFCURVE",
"385 17 CURVE SMOOTH",
"403 24 OFFCURVE",
"408 33 OFFCURVE",
"408 52 CURVE SMOOTH",
"408 200 LINE SMOOTH",
"408 212 OFFCURVE",
"400 221 OFFCURVE",
"386 221 CURVE SMOOTH",
"272 221 LINE SMOOTH",
"260 221 OFFCURVE",
"252 213 OFFCURVE",
"252 200 CURVE SMOOTH",
"252 188 OFFCURVE",
"260 179 OFFCURVE",
"272 179 CURVE SMOOTH",
"360 179 LINE",
"360 35 LINE",
"373 60 LINE",
"344 48 OFFCURVE",
"305 39 OFFCURVE",
"261 39 CURVE SMOOTH",
"162 39 OFFCURVE",
"110 100 OFFCURVE",
"110 212 CURVE SMOOTH",
"110 320 OFFCURVE",
"160 383 OFFCURVE",
"256 383 CURVE SMOOTH",
"308 383 OFFCURVE",
"336 367 OFFCURVE",
"369 341 CURVE SMOOTH",
"376 337 OFFCURVE",
"381 334 OFFCURVE",
"387 334 CURVE SMOOTH",
"398 334 OFFCURVE",
"404 346 OFFCURVE",
"404 357 CURVE SMOOTH",
"404 364 OFFCURVE",
"402 372 OFFCURVE",
"394 378 CURVE SMOOTH",
"360 410 OFFCURVE",
"310 427 OFFCURVE",
"255 427 CURVE SMOOTH",
"134 427 OFFCURVE",
"55 346 OFFCURVE",
"55 212 CURVE SMOOTH",
"55 77 OFFCURVE",
"132 -4 OFFCURVE",
"259 -4 CURVE SMOOTH"
);
}
);
width = 453;
}
);
leftMetricsKey = O;
unicode = 0067;
userData = {
anchors = (
);
b = {
};
com.typemytype.robofont.layerData = {
b = {
anchors = (
);
components = (
);
contours = (
{
points = (
{
segmentType = curve;
smooth = 1;
x = 783;
y = "-22";
},
{
smooth = 0;
x = 965;
y = "-22";
},
{
smooth = 0;
x = 1086;
y = 34;
},
{
segmentType = curve;
smooth = 1;
x = 1166;
y = 86;
},
{
smooth = 0;
x = 1270;
y = 154;
},
{
smooth = 0;
x = 1186;
y = 258;
},
{
segmentType = curve;
smooth = 1;
x = 1112;
y = 214;
},
{
smooth = 0;
x = 1024;
y = 162;
},
{
smooth = 0;
x = 939;
y = 120;
},
{
segmentType = curve;
smooth = 1;
x = 806;
y = 120;
},
{
smooth = 0;
x = 446;
y = 120;
},
{
smooth = 0;
x = 316;
y = 406;
},
{
segmentType = curve;
smooth = 1;
x = 316;
y = 706;
},
{
smooth = 0;
x = 316;
y = 1005;
},
{
smooth = 0;
x = 450;
y = 1296;
},
{
segmentType = curve;
smooth = 1;
x = 801;
y = 1296;
},
{
smooth = 0;
x = 980;
y = 1296;
},
{
smooth = 0;
x = 1053;
y = 1246;
},
{
segmentType = curve;
smooth = 1;
x = 1094;
y = 1225;
},
{
smooth = 0;
x = 1174;
y = 1184;
},
{
smooth = 0;
x = 1231;
y = 1300;
},
{
segmentType = curve;
smooth = 1;
x = 1156;
y = 1343;
},
{
smooth = 0;
x = 1106;
y = 1372;
},
{
smooth = 0;
x = 995;
y = 1438;
},
{
segmentType = curve;
smooth = 1;
x = 797;
y = 1438;
},
{
smooth = 0;
x = 359;
y = 1438;
},
{
smooth = 0;
x = 128;
y = 1093;
},
{
segmentType = curve;
smooth = 1;
x = 128;
y = 704;
},
{
smooth = 0;
x = 128;
y = 307;
},
{
smooth = 0;
x = 350;
y = "-22";
}
);
}
);
lib = {
};
name = G;
unicodes = (
);
width = 1448;
};
};
components = (
);
contours = (
);
lib = {
};
name = G;
unicodes = (
);
width = 1538;
};
},
{
glyphname = h;
lastChange = "2016-08-26 11:53:37 +0000";
layers = (
{
layerId = "E8E050E3-0A14-4B86-A80E-91CF38789E8F";
paths = (
{
closed = 1;
nodes = (
"89 -3 OFFCURVE",
"101 6 OFFCURVE",
"101 23 CURVE SMOOTH",
"101 400 LINE SMOOTH",
"101 416 OFFCURVE",
"89 426 OFFCURVE",
"74 426 CURVE SMOOTH",
"59 426 OFFCURVE",
"49 416 OFFCURVE",
"49 400 CURVE SMOOTH",
"49 23 LINE SMOOTH",
"49 6 OFFCURVE",
"59 -3 OFFCURVE",
"74 -3 CURVE SMOOTH"
);
},
{
closed = 1;
nodes = (
"371 192 LINE",
"371 237 LINE",
"72 237 LINE",
"72 192 LINE"
);
},
{
closed = 1;
nodes = (
"390 -3 OFFCURVE",
"401 6 OFFCURVE",
"401 23 CURVE SMOOTH",
"401 400 LINE SMOOTH",
"401 416 OFFCURVE",
"390 426 OFFCURVE",
"375 426 CURVE SMOOTH",
"360 426 OFFCURVE",
"350 416 OFFCURVE",
"350 400 CURVE SMOOTH",
"350 23 LINE SMOOTH",
"350 6 OFFCURVE",
"360 -3 OFFCURVE",
"375 -3 CURVE SMOOTH"
);
}
);
width = 450;
}
);
unicode = 0068;
userData = {
anchors = (
);
b = {
};
com.typemytype.robofont.layerData = {
b = {
anchors = (
);
components = (
);
contours = (
);
lib = {
};
name = H;
unicodes = (
);
width = 1464;
};
};
components = (
);
contours = (
);
lib = {
};
name = H;
unicodes = (
);
width = 1524;
};
},
{
glyphname = i;
lastChange = "2016-08-26 11:53:37 +0000";
layers = (
{
layerId = "E8E050E3-0A14-4B86-A80E-91CF38789E8F";
paths = (
{
closed = 1;
nodes = (
"123 -3 OFFCURVE",
"133 6 OFFCURVE",
"133 23 CURVE SMOOTH",
"133 400 LINE SMOOTH",
"133 416 OFFCURVE",
"123 426 OFFCURVE",
"107 426 CURVE SMOOTH",
"92 426 OFFCURVE",
"81 416 OFFCURVE",
"81 400 CURVE SMOOTH",
"81 23 LINE SMOOTH",
"81 6 OFFCURVE",
"92 -3 OFFCURVE",
"107 -3 CURVE SMOOTH"
);
}
);
width = 215;
}
);
leftMetricsKey = H;
rightMetricsKey = H;
unicode = 0069;
userData = {
anchors = (
);
b = {
};
com.typemytype.robofont.layerData = {
b = {
anchors = (
);
components = (
);
contours = (
);
lib = {
};
name = I;
unicodes = (
);
width = 592;
};
};
components = (
);
contours = (
);
lib = {
};
name = I;
unicodes = (
);
width = 637;
};
},
{
glyphname = j;
lastChange = "2016-08-26 11:53:37 +0000";
layers = (
{
layerId = "E8E050E3-0A14-4B86-A80E-91CF38789E8F";
paths = (
{
closed = 1;
nodes = (
"46 -2 LINE SMOOTH",
"115 2 OFFCURVE",
"149 39 OFFCURVE",
"149 113 CURVE SMOOTH",
"149 400 LINE SMOOTH",
"149 416 OFFCURVE",
"138 426 OFFCURVE",
"123 426 CURVE SMOOTH",
"109 426 OFFCURVE",
"97 416 OFFCURVE",
"97 400 CURVE SMOOTH",
"97 114 LINE SMOOTH",
"97 63 OFFCURVE",
"76 45 OFFCURVE",
"37 42 CURVE SMOOTH",
"19 40 LINE SMOOTH",
"3 40 OFFCURVE",
"-4 31 OFFCURVE",
"-4 18 CURVE SMOOTH",
"-4 4 OFFCURVE",
"8 -4 OFFCURVE",
"28 -3 CURVE SMOOTH"
);
}
);
width = 230;
}
);
rightMetricsKey = H;
unicode = 006A;
userData = {
anchors = (
);
b = {
};
com.typemytype.robofont.layerData = {
b = {
anchors = (
);
components = (
);
contours = (
);
lib = {
};
name = J;
unicodes = (
);
width = 1003;
};
};
components = (
);
contours = (
);
lib = {
};
name = J;
unicodes = (
);
width = 1126;
};
},
{
glyphname = k;
lastChange = "2016-08-26 11:53:37 +0000";
layers = (
{
layerId = "E8E050E3-0A14-4B86-A80E-91CF38789E8F";
paths = (
{
closed = 1;
nodes = (
"379 -17 OFFCURVE",
"413 17 OFFCURVE",
"389 40 CURVE SMOOTH",
"169 232 LINE",
"168 200 LINE",
"377 384 LINE SMOOTH",
"402 406 OFFCURVE",
"367 440 OFFCURVE",
"344 418 CURVE SMOOTH",
"117 215 LINE",
"355 5 LINE SMOOTH"
);
},
{
closed = 1;
nodes = (
"123 -3 OFFCURVE",
"133 6 OFFCURVE",
"133 23 CURVE SMOOTH",
"133 400 LINE SMOOTH",
"133 416 OFFCURVE",
"123 426 OFFCURVE",
"107 426 CURVE SMOOTH",
"92 426 OFFCURVE",
"81 416 OFFCURVE",
"81 400 CURVE SMOOTH",
"81 23 LINE SMOOTH",
"81 6 OFFCURVE",
"92 -3 OFFCURVE",
"107 -3 CURVE SMOOTH"
);
}
);
width = 407;
}
);
leftMetricsKey = H;
unicode = 006B;
userData = {
anchors = (
);
b = {
};
com.typemytype.robofont.layerData = {
b = {
anchors = (
);
components = (
);
contours = (
);
lib = {
};
name = K;
unicodes = (
);
width = 1210;
};
};
components = (
);
contours = (
);
lib = {
};
name = K;
unicodes = (
);
width = 1329;
};
},
{
glyphname = l;
lastChange = "2016-08-26 11:53:37 +0000";
layers = (
{
layerId = "E8E050E3-0A14-4B86-A80E-91CF38789E8F";
paths = (
{
closed = 1;
nodes = (
"325 0 LINE SMOOTH",
"340 0 OFFCURVE",
"349 8 OFFCURVE",
"349 23 CURVE SMOOTH",
"349 37 OFFCURVE",
"340 45 OFFCURVE",
"325 45 CURVE SMOOTH",
"133 45 LINE",
"133 400 LINE SMOOTH",
"133 416 OFFCURVE",
"123 426 OFFCURVE",
"107 426 CURVE SMOOTH",
"92 426 OFFCURVE",
"81 416 OFFCURVE",
"81 400 CURVE SMOOTH",
"81 24 LINE SMOOTH",
"81 10 OFFCURVE",
"92 0 OFFCURVE",
"107 0 CURVE SMOOTH"
);
}
);
width = 352;
}
);
leftMetricsKey = H;
unicode = 006C;
userData = {
anchors = (
);
b = {
};
com.typemytype.robofont.layerData = {
b = {
anchors = (
);
components = (
);
contours = (
{
points = (
{
segmentType = curve;
smooth = 1;
x = 266;
y = 0;
},
{
segmentType = line;
smooth = 1;
x = 1035;
y = 0;
},
{
smooth = 0;
x = 1084;
y = 0;
},
{
smooth = 0;
x = 1108;
y = 34;
},
{
segmentType = curve;
smooth = 1;
x = 1108;
y = 71;
},
{
smooth = 0;
x = 1108;
y = 107;
},
{
smooth = 0;
x = 1084;
y = 141;
},
{
segmentType = curve;
smooth = 1;
x = 1035;
y = 141;
},
{
segmentType = line;
smooth = 0;
x = 356;
y = 141;
},
{
segmentType = line;
smooth = 0;
x = 356;
y = 665;
},
{
segmentType = line;
smooth = 1;
x = 975;
y = 665;
},
{
smooth = 0;
x = 1024;
y = 665;
},
{
smooth = 0;
x = 1049;
y = 698;
},
{
segmentType = curve;
smooth = 1;
x = 1049;
y = 734;
},
{
smooth = 0;
x = 1049;
y = 770;
},
{
smooth = 0;
x = 1026;
y = 803;
},
{
segmentType = curve;
smooth = 1;
x = 975;
y = 803;
},
{
segmentType = line;
smooth = 0;
x = 356;
y = 803;
},
{
segmentType = line;
smooth = 0;
x = 356;
y = 1285;
},
{
segmentType = line;
smooth = 1;
x = 1007;
y = 1285;
},
{
smooth = 0;
x = 1056;
y = 1285;
},
{
smooth = 0;
x = 1080;
y = 1319;
},
{
segmentType = curve;
smooth = 1;
x = 1080;
y = 1356;
},
{
smooth = 0;
x = 1080;
y = 1392;
},
{
smooth = 0;
x = 1056;
y = 1426;
},
{
segmentType = curve;
smooth = 1;
x = 1007;
y = 1426;
},
{
segmentType = line;
smooth = 1;
x = 261;
y = 1426;
},
{
smooth = 0;
x = 213;
y = 1426;
},
{
smooth = 0;
x = 178;
y = 1383;
},
{
segmentType = curve;
smooth = 1;
x = 178;
y = 1340;
},
{
segmentType = line;
smooth = 1;
x = 178;
y = 86;
},
{
smooth = 0;
x = 178;
y = 41;
},
{
smooth = 0;
x = 222;
y = 0;
}
);
}
);
lib = {
};
name = L;
unicodes = (
);
width = 1095;
};
};
components = (
);
contours = (
);
lib = {
};
name = L;
unicodes = (
);
width = 1169;
};
},
{
glyphname = m;
lastChange = "2016-08-26 11:53:37 +0000";
layers = (
{
layerId = "E8E050E3-0A14-4B86-A80E-91CF38789E8F";
paths = (
{
closed = 1;
nodes = (
"122 -3 OFFCURVE",
"132 6 OFFCURVE",
"132 23 CURVE SMOOTH",
"132 355 LINE",
"113 353 LINE",
"259 79 LINE SMOOTH",
"265 67 OFFCURVE",
"273 61 OFFCURVE",
"284 61 CURVE SMOOTH",
"295 61 OFFCURVE",
"304 67 OFFCURVE",
"310 79 CURVE SMOOTH",
"453 353 LINE",
"437 355 LINE",
"437 23 LINE SMOOTH",
"437 6 OFFCURVE",
"446 -3 OFFCURVE",
"460 -3 CURVE SMOOTH",
"474 -3 OFFCURVE",
"484 6 OFFCURVE",
"484 23 CURVE SMOOTH",
"484 400 LINE SMOOTH",
"484 416 OFFCURVE",
"474 426 OFFCURVE",
"459 426 CURVE SMOOTH",
"450 426 OFFCURVE",
"442 422 OFFCURVE",
"434 407 CURVE SMOOTH",
"276 102 LINE",
"294 102 LINE",
"134 407 LINE SMOOTH",
"127 422 OFFCURVE",
"118 426 OFFCURVE",
"109 426 CURVE SMOOTH",
"94 426 OFFCURVE",
"83 416 OFFCURVE",
"83 400 CURVE SMOOTH",
"83 23 LINE SMOOTH",
"83 6 OFFCURVE",
"93 -3 OFFCURVE",
"107 -3 CURVE SMOOTH"
);
}
);
width = 568;
}
);
leftMetricsKey = "=H+2";
rightMetricsKey = "=H+2";
unicode = 006D;
userData = {
anchors = (
);
b = {
};
com.typemytype.robofont.layerData = {
b = {
anchors = (
);
components = (
);
contours = (
);
lib = {
};
name = M;
unicodes = (
);
width = 1899;
};
};
components = (
);
contours = (
);
lib = {
};
name = M;
unicodes = (
);
width = 1984;
};
},
{
glyphname = n;
lastChange = "2016-08-26 11:53:37 +0000";
layers = (
{
layerId = "E8E050E3-0A14-4B86-A80E-91CF38789E8F";
paths = (
{
closed = 1;
nodes = (
"120 -3 OFFCURVE",
"131 6 OFFCURVE",
"131 23 CURVE SMOOTH",
"131 359 LINE",
"116 356 LINE",
"376 7 LINE SMOOTH",
"382 0 OFFCURVE",
"388 -3 OFFCURVE",
"397 -3 CURVE SMOOTH",
"412 -3 OFFCURVE",
"422 6 OFFCURVE",
"422 23 CURVE SMOOTH",
"422 400 LINE SMOOTH",
"422 416 OFFCURVE",
"412 426 OFFCURVE",
"397 426 CURVE SMOOTH",
"384 426 OFFCURVE",
"372 416 OFFCURVE",
"372 400 CURVE SMOOTH",
"372 64 LINE",
"388 66 LINE",
"128 416 LINE SMOOTH",
"122 423 OFFCURVE",
"116 426 OFFCURVE",
"107 426 CURVE SMOOTH",
"92 426 OFFCURVE",
"81 416 OFFCURVE",
"81 400 CURVE SMOOTH",
"81 23 LINE SMOOTH",
"81 6 OFFCURVE",
"92 -3 OFFCURVE",
"106 -3 CURVE SMOOTH"
);
}
);
width = 504;
}
);
leftMetricsKey = H;
rightMetricsKey = H;
unicode = 006E;
userData = {
anchors = (
);
b = {
};
com.typemytype.robofont.layerData = {
b = {
anchors = (
);
components = (
);
contours = (
);
lib = {
};
name = N;
unicodes = (
);
width = 1499;
};
};
components = (
);
contours = (
);
lib = {
};
name = N;
unicodes = (
);
width = 1557;
};
},
{
glyphname = o;
lastChange = "2016-08-26 11:53:37 +0000";
layers = (
{
layerId = "E8E050E3-0A14-4B86-A80E-91CF38789E8F";
paths = (
{
closed = 1;
nodes = (
"343 -4 OFFCURVE",
"420 77 OFFCURVE",
"420 212 CURVE SMOOTH",
"420 347 OFFCURVE",
"343 427 OFFCURVE",
"227 427 CURVE SMOOTH",
"111 427 OFFCURVE",
"33 347 OFFCURVE",
"33 211 CURVE SMOOTH",
"33 77 OFFCURVE",
"111 -4 OFFCURVE",
"227 -4 CURVE SMOOTH"
);
},
{
closed = 1;
nodes = (
"137 40 OFFCURVE",
"87 103 OFFCURVE",
"87 212 CURVE SMOOTH",
"87 320 OFFCURVE",
"136 383 OFFCURVE",
"227 383 CURVE SMOOTH",
"318 383 OFFCURVE",
"367 320 OFFCURVE",
"367 212 CURVE SMOOTH",
"367 103 OFFCURVE",
"318 40 OFFCURVE",
"227 40 CURVE SMOOTH"
);
}
);
width = 454;
}
);
unicode = 006F;
userData = {
anchors = (
);
b = {
};
com.typemytype.robofont.guides = (
);
com.typemytype.robofont.layerData = {
b = {
anchors = (
);
components = (
);
contours = (
);
lib = {
};
name = O;
unicodes = (
);
width = 1597;
};
};
components = (
);
contours = (
);
lib = {
};
name = O;
unicodes = (
);
width = 1604;
};
},
{
glyphname = p;
lastChange = "2016-08-26 11:53:37 +0000";
layers = (
{
layerId = "E8E050E3-0A14-4B86-A80E-91CF38789E8F";
paths = (
{
closed = 1;
nodes = (
"123 -3 OFFCURVE",
"133 6 OFFCURVE",
"133 23 CURVE SMOOTH",
"133 173 LINE",
"250 173 LINE SMOOTH",
"333 173 OFFCURVE",
"391 218 OFFCURVE",
"391 298 CURVE SMOOTH",
"391 379 OFFCURVE",
"336 423 OFFCURVE",
"250 423 CURVE SMOOTH",
"107 423 LINE SMOOTH",
"92 423 OFFCURVE",
"81 413 OFFCURVE",
"81 397 CURVE SMOOTH",
"81 23 LINE SMOOTH",
"81 6 OFFCURVE",
"92 -3 OFFCURVE",
"107 -3 CURVE SMOOTH"
);
},
{
closed = 1;
nodes = (
"133 380 LINE",
"245 380 LINE SMOOTH",
"303 380 OFFCURVE",
"340 357 OFFCURVE",
"340 298 CURVE SMOOTH",
"340 240 OFFCURVE",
"303 216 OFFCURVE",
"245 216 CURVE SMOOTH",
"133 216 LINE"
);
}
);
width = 416;
}
);
leftMetricsKey = H;
unicode = 0070;
userData = {
anchors = (
);
b = {
};
com.typemytype.robofont.layerData = {
b = {
anchors = (
);
components = (
);
contours = (
{
points = (
{
segmentType = curve;
smooth = 1;
x = 266;
y = 0;
},
{
segmentType = line;
smooth = 1;
x = 1035;
y = 0;
},
{
smooth = 0;
x = 1084;
y = 0;
},
{
smooth = 0;
x = 1108;
y = 34;
},
{
segmentType = curve;
smooth = 1;
x = 1108;
y = 71;
},
{
smooth = 0;
x = 1108;
y = 107;
},
{
smooth = 0;
x = 1084;
y = 141;
},
{
segmentType = curve;
smooth = 1;
x = 1035;
y = 141;
},
{
segmentType = line;
smooth = 0;
x = 356;
y = 141;
},
{
segmentType = line;
smooth = 0;
x = 356;
y = 665;
},
{
segmentType = line;
smooth = 1;
x = 975;
y = 665;
},
{
smooth = 0;
x = 1024;
y = 665;
},
{
smooth = 0;
x = 1049;
y = 698;
},
{
segmentType = curve;
smooth = 1;
x = 1049;
y = 734;
},
{
smooth = 0;
x = 1049;
y = 770;
},
{
smooth = 0;
x = 1026;
y = 803;
},
{
segmentType = curve;
smooth = 1;
x = 975;
y = 803;
},
{
segmentType = line;
smooth = 0;
x = 356;
y = 803;
},
{
segmentType = line;
smooth = 0;
x = 356;
y = 1285;
},
{
segmentType = line;
smooth = 1;
x = 1007;
y = 1285;
},
{
smooth = 0;
x = 1056;
y = 1285;
},
{
smooth = 0;
x = 1080;
y = 1319;
},
{
segmentType = curve;
smooth = 1;
x = 1080;
y = 1356;
},
{
smooth = 0;
x = 1080;
y = 1392;
},
{
smooth = 0;
x = 1056;
y = 1426;
},
{
segmentType = curve;
smooth = 1;
x = 1007;
y = 1426;
},
{
segmentType = line;
smooth = 1;
x = 261;
y = 1426;
},
{
smooth = 0;
x = 213;
y = 1426;
},
{
smooth = 0;
x = 178;
y = 1383;
},
{
segmentType = curve;
smooth = 1;
x = 178;
y = 1340;
},
{
segmentType = line;
smooth = 1;
x = 178;
y = 86;
},
{
smooth = 0;
x = 178;
y = 41;
},
{
smooth = 0;
x = 222;
y = 0;
}
);
}
);
lib = {
};
name = P;
unicodes = (
);
width = 1201;
};
};
components = (
);
contours = (
);
lib = {
};
name = P;
unicodes = (
);
width = 1319;
};
},
{
glyphname = q;
lastChange = "2016-08-26 11:53:37 +0000";
layers = (
{
components = (
{
name = O;
transform = "{0.6, 0, 0, 0.6, 22, 0}";
}
);
layerId = "E8E050E3-0A14-4B86-A80E-91CF38789E8F";
paths = (
{
closed = 1;
nodes = (
"369 -126 OFFCURVE",
"415 -107 OFFCURVE",
"396 -76 CURVE SMOOTH",
"370 -31 LINE SMOOTH",
"351 -1 OFFCURVE",
"333 14 OFFCURVE",
"290 14 CURVE",
"249 -4 LINE",
"287 -4 OFFCURVE",
"306 -20 OFFCURVE",
"316 -37 CURVE SMOOTH",
"350 -95 LINE SMOOTH"
);
}
);
width = 756;
}
);
leftMetricsKey = O;
widthMetricsKey = O;
unicode = 0071;
userData = {
anchors = (
);
b = {
};
com.typemytype.robofont.layerData = {
b = {
anchors = (
);
components = (
);
contours = (
);
lib = {
};
name = Q;
unicodes = (
);
width = 1597;
};
};
components = (
);
contours = (
);
lib = {
};
name = Q;
unicodes = (
);
width = 1604;
};
},
{
glyphname = r;
lastChange = "2016-08-26 11:53:37 +0000";
layers = (
{
layerId = "E8E050E3-0A14-4B86-A80E-91CF38789E8F";
paths = (
{
closed = 1;
nodes = (
"123 -3 OFFCURVE",
"133 6 OFFCURVE",
"133 23 CURVE SMOOTH",
"133 178 LINE",
"206 178 LINE SMOOTH",
"244 178 OFFCURVE",
"262 167 OFFCURVE",
"283 136 CURVE SMOOTH",
"361 12 LINE SMOOTH",
"382 -20 OFFCURVE",
"427 1 OFFCURVE",
"407 30 CURVE SMOOTH",
"339 138 LINE SMOOTH",
"317 173 OFFCURVE",
"296 188 OFFCURVE",
"256 188 CURVE",
"259 182 LINE",
"341 182 OFFCURVE",
"399 221 OFFCURVE",
"399 302 CURVE SMOOTH",
"399 383 OFFCURVE",
"344 423 OFFCURVE",
"259 423 CURVE SMOOTH",
"107 423 LINE SMOOTH",
"92 423 OFFCURVE",
"81 413 OFFCURVE",
"81 397 CURVE SMOOTH",
"81 23 LINE SMOOTH",
"81 6 OFFCURVE",
"92 -3 OFFCURVE",
"107 -3 CURVE SMOOTH"
);
},
{
closed = 1;
nodes = (
"133 380 LINE",
"253 380 LINE SMOOTH",
"312 380 OFFCURVE",
"347 360 OFFCURVE",
"347 301 CURVE SMOOTH",
"347 243 OFFCURVE",
"312 222 OFFCURVE",
"253 222 CURVE SMOOTH",
"133 222 LINE"
);
}
);
width = 437;
}
);
leftMetricsKey = H;
unicode = 0072;
userData = {
anchors = (
);
b = {
};
com.typemytype.robofont.guides = (
);
com.typemytype.robofont.layerData = {
b = {
anchors = (
);
components = (
);
contours = (
{
points = (
{
segmentType = curve;
smooth = 1;
x = 267;
y = 0;
},
{
smooth = 0;
x = 311;
y = 0;
},
{
smooth = 0;
x = 356;
y = 27;
},
{
segmentType = curve;
smooth = 1;
x = 356;
y = 84;
},
{
segmentType = line;
smooth = 0;
x = 356;
y = 628;
},
{
segmentType = line;
smooth = 1;
x = 669;
y = 628;
},
{
smooth = 0;
x = 962;
y = 628;
},
{
smooth = 0;
x = 1182;
y = 722;
},
{
segmentType = curve;
smooth = 1;
x = 1182;
y = 1026;
},
{
smooth = 0;
x = 1182;
y = 1324;
},
{
smooth = 0;
x = 993;
y = 1426;
},
{
segmentType = curve;
smooth = 1;
x = 684;
y = 1426;
},
{
segmentType = line;
smooth = 1;
x = 268;
y = 1426;
},
{
smooth = 0;
x = 217;
y = 1426;
},
{
smooth = 0;
x = 178;
y = 1387;
},
{
segmentType = curve;
smooth = 1;
x = 178;
y = 1339;
},
{
segmentType = line;
smooth = 1;
x = 178;
y = 84;
},
{
smooth = 0;
x = 178;
y = 28;
},
{
smooth = 0;
x = 222;
y = 0;
}
);
},
{
points = (
{
segmentType = line;
smooth = 0;
x = 356;
y = 764;
},
{
segmentType = line;
smooth = 0;
x = 356;
y = 1285;
},
{
segmentType = line;
smooth = 1;
x = 684;
y = 1285;
},
{
smooth = 0;
x = 914;
y = 1285;
},
{
smooth = 0;
x = 1008;
y = 1210;
},
{
segmentType = curve;
smooth = 1;
x = 1008;
y = 1026;
},
{
smooth = 0;
x = 1008;
y = 838;
},
{
smooth = 0;
x = 901;
y = 764;
},
{
segmentType = curve;
smooth = 1;
x = 670;
y = 764;
}
);
}
);
lib = {
};
name = R;
unicodes = (
);
width = 1363;
};
};
components = (
);
contours = (
);
lib = {
};
name = R;
unicodes = (
);
width = 1408;
};
},
{
glyphname = s;
lastChange = "2016-08-26 11:53:37 +0000";
layers = (
{
layerId = "E8E050E3-0A14-4B86-A80E-91CF38789E8F";
paths = (
{
closed = 1;
nodes = (
"279 -4 OFFCURVE",
"340 46 OFFCURVE",
"340 115 CURVE SMOOTH",
"340 264 OFFCURVE",
"84 195 OFFCURVE",
"84 307 CURVE SMOOTH",
"84 357 OFFCURVE",
"124 383 OFFCURVE",
"187 383 CURVE SMOOTH",
"239 383 OFFCURVE",
"267 367 OFFCURVE",
"301 341 CURVE SMOOTH",
"308 337 OFFCURVE",
"313 334 OFFCURVE",
"319 334 CURVE SMOOTH",
"329 334 OFFCURVE",
"336 346 OFFCURVE",
"336 357 CURVE SMOOTH",
"336 365 OFFCURVE",
"334 372 OFFCURVE",
"326 378 CURVE SMOOTH",
"292 410 OFFCURVE",
"242 427 OFFCURVE",
"187 427 CURVE SMOOTH",
"85 427 OFFCURVE",
"31 369 OFFCURVE",
"31 305 CURVE SMOOTH",
"31 151 OFFCURVE",
"287 215 OFFCURVE",
"287 114 CURVE SMOOTH",
"287 66 OFFCURVE",
"249 40 OFFCURVE",
"182 40 CURVE SMOOTH",
"131 40 OFFCURVE",
"90 56 OFFCURVE",
"56 82 CURVE SMOOTH",
"50 86 OFFCURVE",
"45 89 OFFCURVE",
"39 89 CURVE SMOOTH",
"28 89 OFFCURVE",
"22 77 OFFCURVE",
"22 66 CURVE SMOOTH",
"22 59 OFFCURVE",
"24 51 OFFCURVE",
"31 45 CURVE SMOOTH",
"65 13 OFFCURVE",
"126 -4 OFFCURVE",
"183 -4 CURVE SMOOTH"
);
}
);
width = 364;
}
);
unicode = 0073;
userData = {
anchors = (
);
b = {
};
com.typemytype.robofont.layerData = {
b = {
anchors = (
);
components = (
);
contours = (
);
lib = {
};
name = S;
unicodes = (
);
width = 1274;
};
};
components = (
);
contours = (
);
lib = {
};
name = S;
unicodes = (
);
width = 1317;
};
},
{
glyphname = t;
lastChange = "2016-08-26 11:53:37 +0000";
layers = (
{
layerId = "E8E050E3-0A14-4B86-A80E-91CF38789E8F";
paths = (
{
closed = 1;
nodes = (
"194 -3 OFFCURVE",
"205 7 OFFCURVE",
"205 23 CURVE SMOOTH",
"205 378 LINE",
"332 378 LINE SMOOTH",
"347 378 OFFCURVE",
"357 386 OFFCURVE",
"357 400 CURVE SMOOTH",
"357 415 OFFCURVE",
"347 423 OFFCURVE",
"332 423 CURVE SMOOTH",
"26 423 LINE SMOOTH",
"10 423 OFFCURVE",
"1 415 OFFCURVE",
"1 400 CURVE SMOOTH",
"1 386 OFFCURVE",
"10 378 OFFCURVE",
"26 378 CURVE SMOOTH",
"152 378 LINE",
"152 23 LINE SMOOTH",
"152 7 OFFCURVE",
"164 -3 OFFCURVE",
"179 -3 CURVE SMOOTH"
);
}
);
width = 358;
}
);
unicode = 0074;
userData = {
anchors = (
);
b = {
};
com.typemytype.robofont.layerData = {
b = {
anchors = (
);
components = (
);
contours = (
{
points = (
{
segmentType = curve;
smooth = 1;
x = 581;
y = 0;
},
{
segmentType = line;
smooth = 1;
x = 1350;
y = 0;
},
{
smooth = 0;
x = 1399;
y = 0;
},
{
smooth = 0;
x = 1423;
y = 34;
},
{
segmentType = curve;
smooth = 1;
x = 1423;
y = 71;
},
{
smooth = 0;
x = 1423;
y = 107;
},
{
smooth = 0;
x = 1399;
y = 141;
},
{
segmentType = curve;
smooth = 1;
x = 1350;
y = 141;
},
{
segmentType = line;
smooth = 0;
x = 671;
y = 141;
},
{
segmentType = line;
smooth = 0;
x = 671;
y = 665;
},
{
segmentType = line;
smooth = 1;
x = 1290;
y = 665;
},
{
smooth = 0;
x = 1339;
y = 665;
},
{
smooth = 0;
x = 1364;
y = 698;
},
{
segmentType = curve;
smooth = 1;
x = 1364;
y = 734;
},
{
smooth = 0;
x = 1364;
y = 770;
},
{
smooth = 0;
x = 1341;
y = 803;
},
{
segmentType = curve;
smooth = 1;
x = 1290;
y = 803;
},
{
segmentType = line;
smooth = 0;
x = 671;
y = 803;
},
{
segmentType = line;
smooth = 0;
x = 671;
y = 1285;
},
{
segmentType = line;
smooth = 1;
x = 1322;
y = 1285;
},
{
smooth = 0;
x = 1371;
y = 1285;
},
{
smooth = 0;
x = 1395;
y = 1319;
},
{
segmentType = curve;
smooth = 1;
x = 1395;
y = 1356;
},
{
smooth = 0;
x = 1395;
y = 1392;
},
{
smooth = 0;
x = 1371;
y = 1426;
},
{
segmentType = curve;
smooth = 1;
x = 1322;
y = 1426;
},
{
segmentType = line;
smooth = 1;
x = 576;
y = 1426;
},
{
smooth = 0;
x = 528;
y = 1426;
},
{
smooth = 0;
x = 493;
y = 1383;
},
{
segmentType = curve;
smooth = 1;
x = 493;
y = 1340;
},
{
segmentType = line;
smooth = 1;
x = 493;
y = 86;
},
{
smooth = 0;
x = 493;
y = 41;
},
{
smooth = 0;
x = 537;
y = 0;
}
);
}
);
lib = {
};
name = T;
unicodes = (
);
width = 1158;
};
};
components = (
);
contours = (
);
lib = {
};
name = T;
unicodes = (
);
width = 1199;
};
},
{
glyphname = u;
lastChange = "2016-08-26 11:53:37 +0000";
layers = (
{
layerId = "E8E050E3-0A14-4B86-A80E-91CF38789E8F";
paths = (
{
closed = 1;
nodes = (
"316 -4 OFFCURVE",
"384 46 OFFCURVE",
"384 166 CURVE SMOOTH",
"384 400 LINE SMOOTH",
"384 416 OFFCURVE",
"373 426 OFFCURVE",
"358 426 CURVE SMOOTH",
"344 426 OFFCURVE",
"332 416 OFFCURVE",
"332 400 CURVE SMOOTH",
"332 162 LINE SMOOTH",
"332 74 OFFCURVE",
"284 40 OFFCURVE",
"215 40 CURVE SMOOTH",
"145 40 OFFCURVE",
"98 74 OFFCURVE",
"98 162 CURVE SMOOTH",
"98 400 LINE SMOOTH",
"98 416 OFFCURVE",
"87 426 OFFCURVE",
"71 426 CURVE SMOOTH",
"57 426 OFFCURVE",
"46 416 OFFCURVE",
"46 400 CURVE SMOOTH",
"46 166 LINE SMOOTH",
"46 45 OFFCURVE",
"114 -4 OFFCURVE",
"215 -4 CURVE SMOOTH"
);
}
);
width = 430;
}
);
unicode = 0075;
userData = {
anchors = (
);
b = {
};
com.typemytype.robofont.layerData = {
b = {
anchors = (
);
components = (
);
contours = (
);
lib = {
};
name = U;
unicodes = (
);
width = 1490;
};
};
components = (
);
contours = (
);
lib = {
};
name = U;
unicodes = (
);
width = 1513;
};
},
{
glyphname = v;
lastChange = "2016-08-26 11:53:37 +0000";
layers = (
{
layerId = "E8E050E3-0A14-4B86-A80E-91CF38789E8F";
paths = (
{
closed = 1;
nodes = (
"191 -9 OFFCURVE",
"227 -8 OFFCURVE",
"236 15 CURVE SMOOTH",
"408 394 LINE SMOOTH",
"421 423 OFFCURVE",
"375 441 OFFCURVE",
"362 411 CURVE SMOOTH",
"199 45 LINE",
"219 45 LINE",
"57 411 LINE SMOOTH",
"43 441 OFFCURVE",
"-3 423 OFFCURVE",
"10 394 CURVE SMOOTH",
"181 15 LINE SMOOTH"
);
}
);
width = 418;
}
);
unicode = 0076;
userData = {
anchors = (
);
b = {
};
com.typemytype.robofont.guides = (
);
com.typemytype.robofont.layerData = {
b = {
anchors = (
);
components = (
);
contours = (
{
points = (
{
segmentType = curve;
smooth = 1;
x = 644;
y = "-5";
},
{
smooth = 0;
x = 712;
y = "-5";
},
{
smooth = 0;
x = 764;
y = 38;
},
{
segmentType = curve;
smooth = 1;
x = 793;
y = 117;
},
{
segmentType = line;
smooth = 1;
x = 1243;
y = 1324;
},
{
smooth = 0;
x = 1247;
y = 1335;
},
{
smooth = 0;
x = 1248;
y = 1342;
},
{
segmentType = curve;
smooth = 1;
x = 1248;
y = 1351;
},
{
smooth = 0;
x = 1248;
y = 1395;
},
{
smooth = 0;
x = 1203;
y = 1427;
},
{
segmentType = curve;
smooth = 1;
x = 1160;
y = 1427;
},
{
smooth = 0;
x = 1125;
y = 1427;
},
{
smooth = 0;
x = 1090;
y = 1408;
},
{
segmentType = curve;
smooth = 1;
x = 1076;
y = 1369;
},
{
segmentType = line;
smooth = 0;
x = 651;
y = 192;
},
{
segmentType = line;
smooth = 0;
x = 650;
y = 190;
},
{
segmentType = line;
smooth = 1;
x = 214;
y = 1370;
},
{
smooth = 0;
x = 200;
y = 1407;
},
{
smooth = 0;
x = 170;
y = 1427;
},
{
segmentType = curve;
smooth = 1;
x = 135;
y = 1427;
},
{
smooth = 0;
x = 90;
y = 1427;
},
{
smooth = 0;
x = 43;
y = 1392;
},
{
segmentType = curve;
smooth = 1;
x = 43;
y = 1344;
},
{
smooth = 0;
x = 43;
y = 1336;
},
{
smooth = 0;
x = 44;
y = 1326;
},
{
segmentType = curve;
smooth = 0;
x = 48;
y = 1318;
},
{
segmentType = line;
smooth = 1;
x = 501;
y = 117;
},
{
smooth = 0;
x = 532;
y = 35;
},
{
smooth = 0;
x = 581;
y = "-5";
}
);
}
);
lib = {
};
name = V;
unicodes = (
);
width = 1289;
};
};
components = (
);
contours = (
);
lib = {
};
name = V;
unicodes = (
);
width = 1365;
};
},
{
glyphname = w;
lastChange = "2016-08-26 11:53:37 +0000";
layers = (
{
layerId = "E8E050E3-0A14-4B86-A80E-91CF38789E8F";
paths = (
{
closed = 1;
nodes = (
"171 -10 OFFCURVE",
"208 -9 OFFCURVE",
"216 15 CURVE SMOOTH",
"340 359 LINE",
"327 359 LINE",
"450 15 LINE SMOOTH",
"458 -10 OFFCURVE",
"496 -9 OFFCURVE",
"504 15 CURVE SMOOTH",
"639 394 LINE SMOOTH",
"652 427 OFFCURVE",
"604 440 OFFCURVE",
"594 410 CURVE SMOOTH",
"467 48 LINE",
"485 48 LINE",
"360 406 LINE SMOOTH",
"350 431 OFFCURVE",
"318 431 OFFCURVE",
"309 407 CURVE SMOOTH",
"182 48 LINE",
"200 48 LINE",
"74 410 LINE SMOOTH",
"64 440 OFFCURVE",
"15 427 OFFCURVE",
"26 394 CURVE SMOOTH",
"163 15 LINE SMOOTH"
);
}
);
width = 666;
}
);
unicode = 0077;
userData = {
anchors = (
);
b = {
};
com.typemytype.robofont.layerData = {
b = {
anchors = (
);
components = (
);
contours = (
);
lib = {
};
name = W;
unicodes = (
);
width = 2126;
};
};
components = (
);
contours = (
);
lib = {
};
name = W;
unicodes = (
);
width = 2070;
};
},
{
glyphname = x;
lastChange = "2016-08-26 11:53:37 +0000";
layers = (
{
layerId = "E8E050E3-0A14-4B86-A80E-91CF38789E8F";
paths = (
{
closed = 1;
nodes = (
"196 179 LINE",
"227 216 LINE",
"362 386 LINE SMOOTH",
"383 410 OFFCURVE",
"345 442 OFFCURVE",
"325 416 CURVE SMOOTH",
"196 253 LINE",
"166 216 LINE",
"23 37 LINE SMOOTH",
"2 13 OFFCURVE",
"40 -19 OFFCURVE",
"60 6 CURVE SMOOTH"
);
},
{
closed = 1;
nodes = (
"353 -19 OFFCURVE",
"389 13 OFFCURVE",
"369 37 CURVE SMOOTH",
"227 216 LINE",
"196 253 LINE",
"67 416 LINE SMOOTH",
"47 442 OFFCURVE",
"9 410 OFFCURVE",
"31 386 CURVE SMOOTH",
"166 216 LINE",
"196 179 LINE",
"332 6 LINE SMOOTH"
);
}
);
width = 392;
}
);
unicode = 0078;
userData = {
anchors = (
);
b = {
};
com.typemytype.robofont.layerData = {
b = {
anchors = (
);
components = (
);
contours = (
{
points = (
{
segmentType = curve;
smooth = 1;
x = 151;
y = 0;
},
{
smooth = 0;
x = 176;
y = 0;
},
{
smooth = 0;
x = 201;
y = 12;
},
{
segmentType = curve;
smooth = 1;
x = 222;
y = 41;
},
{
segmentType = line;
smooth = 0;
x = 641;
y = 616;
},
{
segmentType = line;
smooth = 0;
x = 746;
y = 734;
},
{
segmentType = line;
smooth = 1;
x = 1175;
y = 1310;
},
{
smooth = 0;
x = 1186;
y = 1325;
},
{
smooth = 0;
x = 1190;
y = 1338;
},
{
segmentType = curve;
smooth = 1;
x = 1190;
y = 1353;
},
{
smooth = 0;
x = 1190;
y = 1393;
},
{
smooth = 0;
x = 1153;
y = 1426;
},
{
segmentType = curve;
smooth = 1;
x = 1110;
y = 1426;
},
{
smooth = 0;
x = 1083;
y = 1426;
},
{
smooth = 0;
x = 1058;
y = 1414;
},
{
segmentType = curve;
smooth = 1;
x = 1037;
y = 1385;
},
{
segmentType = line;
smooth = 0;
x = 648;
y = 844;
},
{
segmentType = line;
smooth = 0;
x = 542;
y = 732;
},
{
segmentType = line;
smooth = 1;
x = 84;
y = 121;
},
{
smooth = 0;
x = 73;
y = 106;
},
{
smooth = 0;
x = 68;
y = 91;
},
{
segmentType = curve;
smooth = 1;
x = 68;
y = 76;
},
{
smooth = 0;
x = 68;
y = 35;
},
{
smooth = 0;
x = 108;
y = 0;
}
);
},
{
points = (
{
segmentType = curve;
smooth = 1;
x = 1104;
y = 0;
},
{
smooth = 0;
x = 1151;
y = 0;
},
{
smooth = 0;
x = 1200;
y = 40;
},
{
segmentType = curve;
smooth = 1;
x = 1200;
y = 85;
},
{
smooth = 0;
x = 1200;
y = 98;
},
{
smooth = 0;
x = 1195;
y = 113;
},
{
segmentType = curve;
smooth = 0;
x = 1186;
y = 126;
},
{
segmentType = line;
smooth = 0;
x = 272;
y = 1385;
},
{
smooth = 0;
x = 252;
y = 1414;
},
{
smooth = 0;
x = 225;
y = 1426;
},
{
segmentType = curve;
smooth = 1;
x = 197;
y = 1426;
},
{
smooth = 0;
x = 149;
y = 1426;
},
{
smooth = 0;
x = 100;
y = 1388;
},
{
segmentType = curve;
smooth = 1;
x = 100;
y = 1343;
},
{
smooth = 0;
x = 100;
y = 1328;
},
{
smooth = 0;
x = 105;
y = 1315;
},
{
segmentType = curve;
smooth = 0;
x = 114;
y = 1303;
},
{
segmentType = line;
smooth = 0;
x = 1033;
y = 40;
},
{
smooth = 0;
x = 1052;
y = 13;
},
{
smooth = 0;
x = 1076;
y = 0;
}
);
}
);
lib = {
};
name = X;
unicodes = (
);
width = 1274;
};
};
components = (
);
contours = (
);
lib = {
};
name = X;
unicodes = (
);
width = 1322;
};
},
{
glyphname = y;
lastChange = "2016-08-26 11:53:37 +0000";
layers = (
{
layerId = "E8E050E3-0A14-4B86-A80E-91CF38789E8F";
paths = (
{
closed = 1;
nodes = (
"197 -3 OFFCURVE",
"208 6 OFFCURVE",
"208 23 CURVE SMOOTH",
"208 224 LINE",
"196 189 LINE",
"352 386 LINE SMOOTH",
"372 410 OFFCURVE",
"336 442 OFFCURVE",
"315 416 CURVE SMOOTH",
"175 237 LINE",
"188 237 LINE",
"47 416 LINE SMOOTH",
"27 442 OFFCURVE",
"-10 410 OFFCURVE",
"11 386 CURVE SMOOTH",
"167 189 LINE",
"155 224 LINE",
"155 23 LINE SMOOTH",
"155 6 OFFCURVE",
"166 -3 OFFCURVE",
"181 -3 CURVE SMOOTH"
);
}
);
width = 363;
}
);
unicode = 0079;
userData = {
anchors = (
);
b = {
};
com.typemytype.robofont.guides = (
);
com.typemytype.robofont.layerData = {
b = {
anchors = (
);
components = (
);
contours = (
{
points = (
{
segmentType = curve;
smooth = 1;
x = 641;
y = 0;
},
{
smooth = 0;
x = 685;
y = 0;
},
{
smooth = 0;
x = 730;
y = 29;
},
{
segmentType = curve;
smooth = 1;
x = 730;
y = 85;
},
{
segmentType = line;
smooth = 0;
x = 730;
y = 1285;
},
{
segmentType = line;
smooth = 1;
x = 1115;
y = 1285;
},
{
smooth = 0;
x = 1164;
y = 1285;
},
{
smooth = 0;
x = 1190;
y = 1319;
},
{
segmentType = curve;
smooth = 1;
x = 1190;
y = 1355;
},
{
smooth = 0;
x = 1190;
y = 1392;
},
{
smooth = 0;
x = 1166;
y = 1426;
},
{
segmentType = curve;
smooth = 1;
x = 1115;
y = 1426;
},
{
segmentType = line;
smooth = 1;
x = 160;
y = 1426;
},
{
smooth = 0;
x = 111;
y = 1426;
},
{
smooth = 0;
x = 86;
y = 1392;
},
{
segmentType = curve;
smooth = 1;
x = 86;
y = 1355;
},
{
smooth = 0;
x = 86;
y = 1319;
},
{
smooth = 0;
x = 111;
y = 1285;
},
{
segmentType = curve;
smooth = 1;
x = 160;
y = 1285;
},
{
segmentType = line;
smooth = 0;
x = 552;
y = 1285;
},
{
segmentType = line;
smooth = 1;
x = 552;
y = 85;
},
{
smooth = 0;
x = 552;
y = 29;
},
{
smooth = 0;
x = 596;
y = 0;
}
);
}
);
lib = {
};
name = Y;
unicodes = (
);
width = 1278;
};
};
components = (
);
contours = (
);
lib = {
};
name = Y;
unicodes = (
);
width = 1321;
};
},
{
glyphname = z;
lastChange = "2016-08-26 11:53:37 +0000";
layers = (
{
layerId = "E8E050E3-0A14-4B86-A80E-91CF38789E8F";
paths = (
{
closed = 1;
nodes = (
"311 0 LINE SMOOTH",
"328 0 OFFCURVE",
"336 8 OFFCURVE",
"336 22 CURVE SMOOTH",
"336 36 OFFCURVE",
"328 44 OFFCURVE",
"311 44 CURVE SMOOTH",
"69 44 LINE",
"69 18 LINE",
"323 382 LINE SMOOTH",
"337 401 OFFCURVE",
"329 423 OFFCURVE",
"305 423 CURVE SMOOTH",
"45 423 LINE SMOOTH",
"30 423 OFFCURVE",
"21 415 OFFCURVE",
"21 401 CURVE SMOOTH",
"21 387 OFFCURVE",
"30 379 OFFCURVE",
"45 379 CURVE SMOOTH",
"281 379 LINE",
"281 405 LINE",
"28 42 LINE SMOOTH",
"13 22 OFFCURVE",
"22 0 OFFCURVE",
"45 0 CURVE SMOOTH"
);
}
);
width = 351;
}
);
unicode = 007A;
userData = {
anchors = (
);
b = {
};
com.typemytype.robofont.layerData = {
b = {
anchors = (
);
components = (
);
contours = (
{
points = (
{
segmentType = curve;
smooth = 1;
x = 266;
y = 0;
},
{
segmentType = line;
smooth = 1;
x = 1035;
y = 0;
},
{
smooth = 0;
x = 1084;
y = 0;
},
{
smooth = 0;
x = 1108;
y = 34;
},
{
segmentType = curve;
smooth = 1;
x = 1108;
y = 71;
},
{
smooth = 0;
x = 1108;
y = 107;
},
{
smooth = 0;
x = 1084;
y = 141;
},
{
segmentType = curve;
smooth = 1;
x = 1035;
y = 141;
},
{
segmentType = line;
smooth = 0;
x = 356;
y = 141;
},
{
segmentType = line;
smooth = 0;
x = 356;
y = 665;
},
{
segmentType = line;
smooth = 1;
x = 975;
y = 665;
},
{
smooth = 0;
x = 1024;
y = 665;
},
{
smooth = 0;
x = 1049;
y = 698;
},
{
segmentType = curve;
smooth = 1;
x = 1049;
y = 734;
},
{
smooth = 0;
x = 1049;
y = 770;
},
{
smooth = 0;
x = 1026;
y = 803;
},
{
segmentType = curve;
smooth = 1;
x = 975;
y = 803;
},
{
segmentType = line;
smooth = 0;
x = 356;
y = 803;
},
{
segmentType = line;
smooth = 0;
x = 356;
y = 1285;
},
{
segmentType = line;
smooth = 1;
x = 1007;
y = 1285;
},
{
smooth = 0;
x = 1056;
y = 1285;
},
{
smooth = 0;
x = 1080;
y = 1319;
},
{
segmentType = curve;
smooth = 1;
x = 1080;
y = 1356;
},
{
smooth = 0;
x = 1080;
y = 1392;
},
{
smooth = 0;
x = 1056;
y = 1426;
},
{
segmentType = curve;
smooth = 1;
x = 1007;
y = 1426;
},
{
segmentType = line;
smooth = 1;
x = 261;
y = 1426;
},
{
smooth = 0;
x = 213;
y = 1426;
},
{
smooth = 0;
x = 178;
y = 1383;
},
{
segmentType = curve;
smooth = 1;
x = 178;
y = 1340;
},
{
segmentType = line;
smooth = 1;
x = 178;
y = 86;
},
{
smooth = 0;
x = 178;
y = 41;
},
{
smooth = 0;
x = 222;
y = 0;
}
);
}
);
lib = {
};
name = Z;
unicodes = (
);
width = 1165;
};
};
components = (
);
contours = (
);
lib = {
};
name = Z;
unicodes = (
);
width = 1222;
};
},
{
color = 3;
glyphname = zero;
lastChange = "2016-08-19 11:37:09 +0000";
layers = (
{
layerId = "E8E050E3-0A14-4B86-A80E-91CF38789E8F";
paths = (
{
closed = 1;
nodes = (
"444 -6 OFFCURVE",
"539 108 OFFCURVE",
"539 353 CURVE SMOOTH",
"539 599 OFFCURVE",
"444 711 OFFCURVE",
"290 711 CURVE SMOOTH",
"136 711 OFFCURVE",
"40 599 OFFCURVE",
"40 352 CURVE SMOOTH",
"40 108 OFFCURVE",
"136 -6 OFFCURVE",
"290 -6 CURVE SMOOTH"
);
},
{
closed = 1;
nodes = (
"182 67 OFFCURVE",
"129 155 OFFCURVE",
"129 353 CURVE SMOOTH",
"129 551 OFFCURVE",
"181 638 OFFCURVE",
"290 638 CURVE SMOOTH",
"399 638 OFFCURVE",
"450 551 OFFCURVE",
"450 353 CURVE SMOOTH",
"450 155 OFFCURVE",
"398 67 OFFCURVE",
"290 67 CURVE SMOOTH"
);
}
);
width = 579;
}
);
unicode = 0030;
},
{
color = 3;
glyphname = one;
lastChange = "2016-08-19 11:37:09 +0000";
layers = (
{
layerId = "E8E050E3-0A14-4B86-A80E-91CF38789E8F";
paths = (
{
closed = 1;
nodes = (
"360 39 LINE",
"360 666 LINE SMOOTH",
"360 708 OFFCURVE",
"319 722 OFFCURVE",
"281 698 CURVE SMOOTH",
"129 600 LINE SMOOTH",
"88 574 OFFCURVE",
"126 506 OFFCURVE",
"165 531 CURVE SMOOTH",
"318 629 LINE",
"273 653 LINE",
"273 39 LINE"
);
},
{
closed = 1;
nodes = (
"151 74 LINE SMOOTH",
"124 74 OFFCURVE",
"110 60 OFFCURVE",
"110 37 CURVE SMOOTH",
"110 14 OFFCURVE",
"124 0 OFFCURVE",
"151 0 CURVE SMOOTH",
"482 0 LINE SMOOTH",
"509 0 OFFCURVE",
"523 14 OFFCURVE",
"523 37 CURVE SMOOTH",
"523 60 OFFCURVE",
"509 74 OFFCURVE",
"482 74 CURVE SMOOTH"
);
}
);
width = 579;
}
);
unicode = 0031;
userData = {
com.typemytype.robofont.layerData = {
b = {
anchors = (
);
components = (
);
contours = (
);
lib = {
};
name = one;
unicodes = (
);
width = 1160;
};
};
};
},
{
color = 3;
glyphname = two;
lastChange = "2016-08-19 11:37:09 +0000";
layers = (
{
layerId = "E8E050E3-0A14-4B86-A80E-91CF38789E8F";
paths = (
{
closed = 1;
nodes = (
"497 0 LINE SMOOTH",
"523 0 OFFCURVE",
"537 14 OFFCURVE",
"537 37 CURVE SMOOTH",
"537 60 OFFCURVE",
"523 74 OFFCURVE",
"497 74 CURVE SMOOTH",
"141 74 LINE",
"147 32 LINE",
"382 287 LINE SMOOTH",
"465 376 OFFCURVE",
"500 445 OFFCURVE",
"500 527 CURVE SMOOTH",
"500 633 OFFCURVE",
"426 711 OFFCURVE",
"290 711 CURVE SMOOTH",
"205 711 OFFCURVE",
"121 678 OFFCURVE",
"69 630 CURVE SMOOTH",
"57 618 OFFCURVE",
"52 607 OFFCURVE",
"52 594 CURVE SMOOTH",
"52 576 OFFCURVE",
"63 557 OFFCURVE",
"81 557 CURVE SMOOTH",
"92 557 OFFCURVE",
"99 562 OFFCURVE",
"110 569 CURVE SMOOTH",
"170 614 OFFCURVE",
"223 639 OFFCURVE",
"287 639 CURVE SMOOTH",
"364 639 OFFCURVE",
"413 600 OFFCURVE",
"413 523 CURVE SMOOTH",
"413 461 OFFCURVE",
"382 405 OFFCURVE",
"320 336 CURVE SMOOTH",
"80 73 LINE SMOOTH",
"51 42 OFFCURVE",
"66 0 OFFCURVE",
"105 0 CURVE SMOOTH"
);
}
);
width = 580;
}
);
unicode = 0032;
userData = {
com.typemytype.robofont.layerData = {
b = {
anchors = (
);
components = (
);
contours = (
);
lib = {
};
name = two;
unicodes = (
);
width = 1160;
};
};
};
},
{
color = 3;
glyphname = three;
lastChange = "2016-08-19 11:37:09 +0000";
layers = (
{
layerId = "E8E050E3-0A14-4B86-A80E-91CF38789E8F";
paths = (
{
closed = 1;
nodes = (
"421 -5 OFFCURVE",
"516 66 OFFCURVE",
"516 192 CURVE SMOOTH",
"516 289 OFFCURVE",
"459 348 OFFCURVE",
"369 367 CURVE",
"372 357 LINE",
"442 377 OFFCURVE",
"498 436 OFFCURVE",
"499 530 CURVE SMOOTH",
"500 632 OFFCURVE",
"428 711 OFFCURVE",
"289 711 CURVE SMOOTH",
"203 711 OFFCURVE",
"123 680 OFFCURVE",
"69 630 CURVE SMOOTH",
"56 618 OFFCURVE",
"52 607 OFFCURVE",
"52 594 CURVE SMOOTH",
"52 576 OFFCURVE",
"63 557 OFFCURVE",
"81 557 CURVE SMOOTH",
"92 557 OFFCURVE",
"99 561 OFFCURVE",
"110 569 CURVE SMOOTH",
"168 614 OFFCURVE",
"219 639 OFFCURVE",
"287 639 CURVE SMOOTH",
"364 639 OFFCURVE",
"413 600 OFFCURVE",
"413 524 CURVE SMOOTH",
"413 437 OFFCURVE",
"354 394 OFFCURVE",
"255 394 CURVE SMOOTH",
"217 394 LINE SMOOTH",
"169 394 OFFCURVE",
"169 321 OFFCURVE",
"217 321 CURVE SMOOTH",
"271 321 LINE SMOOTH",
"370 321 OFFCURVE",
"430 286 OFFCURVE",
"430 196 CURVE SMOOTH",
"430 105 OFFCURVE",
"372 67 OFFCURVE",
"281 67 CURVE SMOOTH",
"208 67 OFFCURVE",
"157 91 OFFCURVE",
"99 137 CURVE SMOOTH",
"88 145 OFFCURVE",
"81 149 OFFCURVE",
"70 149 CURVE SMOOTH",
"52 149 OFFCURVE",
"41 130 OFFCURVE",
"41 112 CURVE SMOOTH",
"41 99 OFFCURVE",
"45 88 OFFCURVE",
"58 76 CURVE SMOOTH",
"112 26 OFFCURVE",
"192 -5 OFFCURVE",
"284 -5 CURVE SMOOTH"
);
}
);
width = 579;
}
);
unicode = 0033;
userData = {
com.typemytype.robofont.layerData = {
b = {
anchors = (
);
components = (
);
contours = (
);
lib = {
};
name = three;
unicodes = (
);
width = 1160;
};
};
};
},
{
color = 3;
glyphname = four;
lastChange = "2016-08-19 11:37:09 +0000";
layers = (
{
layerId = "E8E050E3-0A14-4B86-A80E-91CF38789E8F";
paths = (
{
closed = 1;
nodes = (
"101 224 LINE",
"100 182 LINE",
"388 598 LINE",
"363 598 LINE",
"363 39 LINE SMOOTH",
"363 11 OFFCURVE",
"381 -5 OFFCURVE",
"406 -5 CURVE SMOOTH",
"432 -5 OFFCURVE",
"449 11 OFFCURVE",
"449 39 CURVE SMOOTH",
"449 666 LINE SMOOTH",
"449 715 OFFCURVE",
"391 723 OFFCURVE",
"368 691 CURVE SMOOTH",
"42 221 LINE SMOOTH",
"20 188 OFFCURVE",
"32 151 OFFCURVE",
"71 151 CURVE SMOOTH",
"522 151 LINE SMOOTH",
"548 151 OFFCURVE",
"562 165 OFFCURVE",
"562 188 CURVE SMOOTH",
"562 210 OFFCURVE",
"548 224 OFFCURVE",
"522 224 CURVE SMOOTH"
);
}
);
width = 579;
}
);
unicode = 0034;
userData = {
com.typemytype.robofont.layerData = {
b = {
anchors = (
);
components = (
);
contours = (
);
lib = {
};
name = four;
unicodes = (
);
width = 1160;
};
};
};
},
{
color = 3;
glyphname = five;
lastChange = "2016-08-19 11:37:09 +0000";
layers = (
{
layerId = "E8E050E3-0A14-4B86-A80E-91CF38789E8F";
paths = (
{
closed = 1;
nodes = (
"437 -5 OFFCURVE",
"541 83 OFFCURVE",
"541 221 CURVE SMOOTH",
"541 355 OFFCURVE",
"448 443 OFFCURVE",
"318 443 CURVE SMOOTH",
"241 443 OFFCURVE",
"183 413 OFFCURVE",
"146 363 CURVE",
"173 354 LINE",
"173 633 LINE",
"480 633 LINE SMOOTH",
"506 633 OFFCURVE",
"520 647 OFFCURVE",
"520 669 CURVE SMOOTH",
"520 691 OFFCURVE",
"506 705 OFFCURVE",
"480 705 CURVE SMOOTH",
"129 705 LINE SMOOTH",
"102 705 OFFCURVE",
"87 688 OFFCURVE",
"87 664 CURVE SMOOTH",
"87 323 LINE SMOOTH",
"87 287 OFFCURVE",
"130 277 OFFCURVE",
"156 303 CURVE SMOOTH",
"194 348 OFFCURVE",
"240 371 OFFCURVE",
"303 371 CURVE SMOOTH",
"394 371 OFFCURVE",
"456 311 OFFCURVE",
"456 219 CURVE SMOOTH",
"456 124 OFFCURVE",
"394 67 OFFCURVE",
"300 67 CURVE SMOOTH",
"231 67 OFFCURVE",
"179 91 OFFCURVE",
"122 137 CURVE SMOOTH",
"111 145 OFFCURVE",
"103 149 OFFCURVE",
"93 149 CURVE SMOOTH",
"75 149 OFFCURVE",
"64 130 OFFCURVE",
"64 112 CURVE SMOOTH",
"64 99 OFFCURVE",
"68 88 OFFCURVE",
"81 76 CURVE SMOOTH",
"135 26 OFFCURVE",
"215 -5 OFFCURVE",
"302 -5 CURVE SMOOTH"
);
}
);
width = 579;
}
);
unicode = 0035;
userData = {
com.typemytype.robofont.layerData = {
b = {
anchors = (
);
components = (
);
contours = (
);
lib = {
};
name = five;
unicodes = (
);
width = 1160;
};
};
};
},
{
color = 3;
glyphname = six;
lastChange = "2016-08-19 11:37:09 +0000";
layers = (
{
layerId = "E8E050E3-0A14-4B86-A80E-91CF38789E8F";
paths = (
{
closed = 1;
nodes = (
"438 -6 OFFCURVE",
"540 83 OFFCURVE",
"540 221 CURVE SMOOTH",
"540 355 OFFCURVE",
"448 444 OFFCURVE",
"320 444 CURVE SMOOTH",
"218 444 OFFCURVE",
"134 380 OFFCURVE",
"118 288 CURVE",
"131 255 LINE",
"131 337 LINE SMOOTH",
"131 553 OFFCURVE",
"216 639 OFFCURVE",
"317 639 CURVE SMOOTH",
"375 639 OFFCURVE",
"427 615 OFFCURVE",
"484 569 CURVE SMOOTH",
"495 561 OFFCURVE",
"503 557 OFFCURVE",
"514 557 CURVE SMOOTH",
"531 557 OFFCURVE",
"542 576 OFFCURVE",
"542 594 CURVE SMOOTH",
"542 607 OFFCURVE",
"538 618 OFFCURVE",
"525 630 CURVE SMOOTH",
"471 680 OFFCURVE",
"391 711 OFFCURVE",
"315 711 CURVE SMOOTH",
"168 711 OFFCURVE",
"44 602 OFFCURVE",
"44 335 CURVE SMOOTH",
"44 101 OFFCURVE",
"152 -6 OFFCURVE",
"312 -6 CURVE SMOOTH"
);
},
{
closed = 1;
nodes = (
"217 66 OFFCURVE",
"153 127 OFFCURVE",
"153 219 CURVE SMOOTH",
"153 311 OFFCURVE",
"219 371 OFFCURVE",
"307 371 CURVE SMOOTH",
"395 371 OFFCURVE",
"455 311 OFFCURVE",
"455 219 CURVE SMOOTH",
"455 127 OFFCURVE",
"396 66 OFFCURVE",
"307 66 CURVE SMOOTH"
);
}
);
width = 579;
}
);
unicode = 0036;
userData = {
com.typemytype.robofont.layerData = {
b = {
anchors = (
);
components = (
);
contours = (
);
lib = {
};
name = nine;
unicodes = (
);
width = 1160;
};
};
};
},
{
color = 3;
glyphname = seven;
lastChange = "2016-08-19 11:37:09 +0000";
layers = (
{
layerId = "E8E050E3-0A14-4B86-A80E-91CF38789E8F";
paths = (
{
closed = 1;
nodes = (
"522 636 LINE SMOOTH",
"541 670 OFFCURVE",
"532 705 OFFCURVE",
"493 705 CURVE SMOOTH",
"88 705 LINE SMOOTH",
"62 705 OFFCURVE",
"48 691 OFFCURVE",
"48 668 CURVE SMOOTH",
"48 645 OFFCURVE",
"62 631 OFFCURVE",
"88 631 CURVE SMOOTH",
"453 631 LINE",
"450 675 LINE",
"118 56 LINE SMOOTH",
"89 4 OFFCURVE",
"163 -33 OFFCURVE",
"191 16 CURVE SMOOTH"
);
}
);
width = 579;
}
);
unicode = 0037;
userData = {
com.typemytype.robofont.layerData = {
b = {
anchors = (
);
components = (
);
contours = (
);
lib = {
};
name = seven;
unicodes = (
);
width = 1160;
};
};
};
},
{
color = 3;
glyphname = eight;
lastChange = "2016-08-19 11:37:09 +0000";
layers = (
{
layerId = "E8E050E3-0A14-4B86-A80E-91CF38789E8F";
paths = (
{
closed = 1;
nodes = (
"454 -5 OFFCURVE",
"544 69 OFFCURVE",
"544 188 CURVE SMOOTH",
"544 284 OFFCURVE",
"482 353 OFFCURVE",
"384 369 CURVE",
"389 354 LINE",
"471 373 OFFCURVE",
"528 439 OFFCURVE",
"528 525 CURVE SMOOTH",
"528 637 OFFCURVE",
"442 711 OFFCURVE",
"290 711 CURVE SMOOTH",
"138 711 OFFCURVE",
"51 637 OFFCURVE",
"51 525 CURVE SMOOTH",
"51 439 OFFCURVE",
"108 374 OFFCURVE",
"190 354 CURVE",
"196 369 LINE",
"97 353 OFFCURVE",
"35 284 OFFCURVE",
"35 188 CURVE SMOOTH",
"35 69 OFFCURVE",
"126 -5 OFFCURVE",
"290 -5 CURVE SMOOTH"
);
},
{
closed = 1;
nodes = (
"174 67 OFFCURVE",
"120 111 OFFCURVE",
"120 194 CURVE SMOOTH",
"120 276 OFFCURVE",
"174 321 OFFCURVE",
"290 321 CURVE SMOOTH",
"405 321 OFFCURVE",
"459 276 OFFCURVE",
"459 194 CURVE SMOOTH",
"459 111 OFFCURVE",
"405 67 OFFCURVE",
"290 67 CURVE SMOOTH"
);
},
{
closed = 1;
nodes = (
"188 394 OFFCURVE",
"137 440 OFFCURVE",
"137 518 CURVE SMOOTH",
"137 593 OFFCURVE",
"188 639 OFFCURVE",
"290 639 CURVE SMOOTH",
"391 639 OFFCURVE",
"442 593 OFFCURVE",
"442 518 CURVE SMOOTH",
"442 440 OFFCURVE",
"391 394 OFFCURVE",
"290 394 CURVE SMOOTH"
);
}
);
width = 579;
}
);
unicode = 0038;
userData = {
com.typemytype.robofont.layerData = {
b = {
anchors = (
);
components = (
);
contours = (
);
lib = {
};
name = eight;
unicodes = (
);
width = 1160;
};
};
};
},
{
color = 3;
glyphname = nine;
lastChange = "2016-08-19 11:37:09 +0000";
layers = (
{
layerId = "E8E050E3-0A14-4B86-A80E-91CF38789E8F";
paths = (
{
closed = 1;
nodes = (
"141 711 OFFCURVE",
"40 622 OFFCURVE",
"40 484 CURVE SMOOTH",
"40 350 OFFCURVE",
"131 261 OFFCURVE",
"259 261 CURVE SMOOTH",
"361 261 OFFCURVE",
"445 325 OFFCURVE",
"461 417 CURVE",
"449 450 LINE",
"449 368 LINE SMOOTH",
"449 152 OFFCURVE",
"363 66 OFFCURVE",
"262 66 CURVE SMOOTH",
"204 66 OFFCURVE",
"152 90 OFFCURVE",
"95 136 CURVE SMOOTH",
"84 144 OFFCURVE",
"76 148 OFFCURVE",
"66 148 CURVE SMOOTH",
"48 148 OFFCURVE",
"37 129 OFFCURVE",
"37 111 CURVE SMOOTH",
"37 98 OFFCURVE",
"41 87 OFFCURVE",
"54 75 CURVE SMOOTH",
"108 25 OFFCURVE",
"188 -6 OFFCURVE",
"265 -6 CURVE SMOOTH",
"411 -6 OFFCURVE",
"536 103 OFFCURVE",
"536 370 CURVE SMOOTH",
"536 605 OFFCURVE",
"427 711 OFFCURVE",
"268 711 CURVE SMOOTH"
);
},
{
closed = 1;
nodes = (
"362 639 OFFCURVE",
"426 578 OFFCURVE",
"426 486 CURVE SMOOTH",
"426 394 OFFCURVE",
"361 334 OFFCURVE",
"273 334 CURVE SMOOTH",
"184 334 OFFCURVE",
"125 394 OFFCURVE",
"125 486 CURVE SMOOTH",
"125 578 OFFCURVE",
"183 639 OFFCURVE",
"272 639 CURVE SMOOTH"
);
}
);
width = 579;
}
);
unicode = 0039;
userData = {
com.typemytype.robofont.layerData = {
b = {
anchors = (
);
components = (
);
contours = (
);
lib = {
};
name = nine;
unicodes = (
);
width = 1160;
};
};
};
},
{
color = 3;
glyphname = one.ss01;
lastChange = "2016-08-26 11:53:37 +0000";
layers = (
{
layerId = "E8E050E3-0A14-4B86-A80E-91CF38789E8F";
paths = (
{
closed = 1;
nodes = (
"345 -5 OFFCURVE",
"363 11 OFFCURVE",
"363 39 CURVE SMOOTH",
"363 666 LINE SMOOTH",
"363 708 OFFCURVE",
"323 722 OFFCURVE",
"284 698 CURVE SMOOTH",
"132 600 LINE SMOOTH",
"91 574 OFFCURVE",
"129 506 OFFCURVE",
"168 531 CURVE SMOOTH",
"321 629 LINE",
"276 653 LINE",
"276 39 LINE SMOOTH",
"276 11 OFFCURVE",
"294 -5 OFFCURVE",
"319 -5 CURVE SMOOTH"
);
}
);
width = 579;
}
);
userData = {
com.typemytype.robofont.layerData = {
b = {
anchors = (
);
components = (
);
contours = (
);
lib = {
};
name = one;
unicodes = (
);
width = 1160;
};
};
};
},
{
color = 9;
glyphname = zero.ss02;
lastChange = "2016-08-26 11:53:37 +0000";
layers = (
{
layerId = "E8E050E3-0A14-4B86-A80E-91CF38789E8F";
paths = (
{
closed = 1;
nodes = (
"266 -4 OFFCURVE",
"324 65 OFFCURVE",
"324 212 CURVE SMOOTH",
"324 359 OFFCURVE",
"266 427 OFFCURVE",
"174 427 CURVE SMOOTH",
"82 427 OFFCURVE",
"24 359 OFFCURVE",
"24 211 CURVE SMOOTH",
"24 65 OFFCURVE",
"82 -4 OFFCURVE",
"174 -4 CURVE SMOOTH"
);
},
{
closed = 1;
nodes = (
"109 40 OFFCURVE",
"78 93 OFFCURVE",
"78 212 CURVE SMOOTH",
"78 330 OFFCURVE",
"109 383 OFFCURVE",
"174 383 CURVE SMOOTH",
"239 383 OFFCURVE",
"270 330 OFFCURVE",
"270 212 CURVE SMOOTH",
"270 93 OFFCURVE",
"239 40 OFFCURVE",
"174 40 CURVE SMOOTH"
);
}
);
width = 348;
}
);
},
{
color = 9;
glyphname = one.ss02;
lastChange = "2016-08-26 11:53:37 +0000";
layers = (
{
layerId = "E8E050E3-0A14-4B86-A80E-91CF38789E8F";
paths = (
{
closed = 1;
nodes = (
"216 23 LINE",
"216 400 LINE SMOOTH",
"216 425 OFFCURVE",
"192 433 OFFCURVE",
"169 419 CURVE SMOOTH",
"77 360 LINE SMOOTH",
"53 344 OFFCURVE",
"75 304 OFFCURVE",
"99 319 CURVE SMOOTH",
"190 378 LINE",
"164 392 LINE",
"164 23 LINE"
);
},
{
closed = 1;
nodes = (
"90 44 LINE SMOOTH",
"75 44 OFFCURVE",
"66 36 OFFCURVE",
"66 22 CURVE SMOOTH",
"66 8 OFFCURVE",
"75 0 OFFCURVE",
"90 0 CURVE SMOOTH",
"289 0 LINE SMOOTH",
"305 0 OFFCURVE",
"314 8 OFFCURVE",
"314 22 CURVE SMOOTH",
"314 36 OFFCURVE",
"305 44 OFFCURVE",
"289 44 CURVE SMOOTH"
);
}
);
width = 348;
}
);
userData = {
com.typemytype.robofont.layerData = {
b = {
anchors = (
);
components = (
);
contours = (
);
lib = {
};
name = one;
unicodes = (
);
width = 1160;
};
};
};
},
{
color = 9;
glyphname = two.ss02;
lastChange = "2016-08-26 11:53:37 +0000";
layers = (
{
layerId = "E8E050E3-0A14-4B86-A80E-91CF38789E8F";
paths = (
{
closed = 1;
nodes = (
"298 0 LINE SMOOTH",
"314 0 OFFCURVE",
"322 8 OFFCURVE",
"322 22 CURVE SMOOTH",
"322 36 OFFCURVE",
"314 44 OFFCURVE",
"298 44 CURVE SMOOTH",
"84 44 LINE",
"88 19 LINE",
"230 172 LINE SMOOTH",
"279 225 OFFCURVE",
"300 267 OFFCURVE",
"300 316 CURVE SMOOTH",
"300 380 OFFCURVE",
"255 427 OFFCURVE",
"174 427 CURVE SMOOTH",
"123 427 OFFCURVE",
"73 407 OFFCURVE",
"41 378 CURVE SMOOTH",
"35 371 OFFCURVE",
"31 364 OFFCURVE",
"31 357 CURVE SMOOTH",
"31 346 OFFCURVE",
"38 334 OFFCURVE",
"48 334 CURVE SMOOTH",
"55 334 OFFCURVE",
"60 337 OFFCURVE",
"67 341 CURVE SMOOTH",
"101 368 OFFCURVE",
"134 383 OFFCURVE",
"172 383 CURVE SMOOTH",
"219 383 OFFCURVE",
"248 360 OFFCURVE",
"248 314 CURVE SMOOTH",
"248 277 OFFCURVE",
"230 243 OFFCURVE",
"191 202 CURVE SMOOTH",
"48 44 LINE SMOOTH",
"31 25 OFFCURVE",
"40 0 OFFCURVE",
"63 0 CURVE SMOOTH"
);
}
);
width = 348;
}
);
userData = {
com.typemytype.robofont.layerData = {
b = {
anchors = (
);
components = (
);
contours = (
);
lib = {
};
name = two;
unicodes = (
);
width = 1160;
};
};
};
},
{
color = 9;
glyphname = three.ss02;
lastChange = "2016-08-26 11:53:37 +0000";
layers = (
{
layerId = "E8E050E3-0A14-4B86-A80E-91CF38789E8F";
paths = (
{
closed = 1;
nodes = (
"253 -3 OFFCURVE",
"309 40 OFFCURVE",
"309 115 CURVE SMOOTH",
"309 174 OFFCURVE",
"276 209 OFFCURVE",
"222 220 CURVE",
"224 214 LINE",
"265 227 OFFCURVE",
"299 262 OFFCURVE",
"300 318 CURVE SMOOTH",
"300 379 OFFCURVE",
"257 427 OFFCURVE",
"173 427 CURVE SMOOTH",
"121 427 OFFCURVE",
"74 408 OFFCURVE",
"41 378 CURVE SMOOTH",
"34 371 OFFCURVE",
"31 364 OFFCURVE",
"31 357 CURVE SMOOTH",
"31 346 OFFCURVE",
"38 334 OFFCURVE",
"48 334 CURVE SMOOTH",
"55 334 OFFCURVE",
"60 337 OFFCURVE",
"67 341 CURVE SMOOTH",
"101 368 OFFCURVE",
"131 383 OFFCURVE",
"172 383 CURVE SMOOTH",
"218 383 OFFCURVE",
"248 360 OFFCURVE",
"248 314 CURVE SMOOTH",
"248 262 OFFCURVE",
"212 236 OFFCURVE",
"153 236 CURVE SMOOTH",
"131 236 LINE SMOOTH",
"101 236 OFFCURVE",
"101 193 OFFCURVE",
"131 193 CURVE SMOOTH",
"163 193 LINE SMOOTH",
"223 193 OFFCURVE",
"259 171 OFFCURVE",
"259 117 CURVE SMOOTH",
"259 63 OFFCURVE",
"223 40 OFFCURVE",
"169 40 CURVE SMOOTH",
"124 40 OFFCURVE",
"94 55 OFFCURVE",
"60 82 CURVE SMOOTH",
"53 87 OFFCURVE",
"49 89 OFFCURVE",
"42 89 CURVE SMOOTH",
"31 89 OFFCURVE",
"25 78 OFFCURVE",
"25 67 CURVE SMOOTH",
"25 59 OFFCURVE",
"27 52 OFFCURVE",
"35 46 CURVE SMOOTH",
"67 15 OFFCURVE",
"115 -3 OFFCURVE",
"170 -3 CURVE SMOOTH"
);
}
);
width = 348;
}
);
userData = {
com.typemytype.robofont.layerData = {
b = {
anchors = (
);
components = (
);
contours = (
);
lib = {
};
name = three;
unicodes = (
);
width = 1160;
};
};
};
},
{
color = 9;
glyphname = four.ss02;
lastChange = "2016-08-26 11:53:37 +0000";
layers = (
{
layerId = "E8E050E3-0A14-4B86-A80E-91CF38789E8F";
paths = (
{
closed = 1;
nodes = (
"61 134 LINE",
"60 109 LINE",
"233 359 LINE",
"218 359 LINE",
"218 23 LINE SMOOTH",
"218 6 OFFCURVE",
"228 -3 OFFCURVE",
"244 -3 CURVE SMOOTH",
"259 -3 OFFCURVE",
"270 6 OFFCURVE",
"270 23 CURVE SMOOTH",
"270 400 LINE SMOOTH",
"270 429 OFFCURVE",
"234 434 OFFCURVE",
"221 415 CURVE SMOOTH",
"25 132 LINE SMOOTH",
"12 113 OFFCURVE",
"19 91 OFFCURVE",
"43 91 CURVE SMOOTH",
"313 91 LINE SMOOTH",
"329 91 OFFCURVE",
"338 99 OFFCURVE",
"338 112 CURVE SMOOTH",
"338 126 OFFCURVE",
"329 134 OFFCURVE",
"313 134 CURVE SMOOTH"
);
}
);
width = 348;
}
);
userData = {
com.typemytype.robofont.layerData = {
b = {
anchors = (
);
components = (
);
contours = (
);
lib = {
};
name = four;
unicodes = (
);
width = 1160;
};
};
};
},
{
color = 9;
glyphname = five.ss02;
lastChange = "2016-08-26 11:53:37 +0000";
layers = (
{
layerId = "E8E050E3-0A14-4B86-A80E-91CF38789E8F";
paths = (
{
closed = 1;
nodes = (
"262 -3 OFFCURVE",
"324 50 OFFCURVE",
"324 133 CURVE SMOOTH",
"324 213 OFFCURVE",
"269 266 OFFCURVE",
"191 266 CURVE SMOOTH",
"145 266 OFFCURVE",
"110 247 OFFCURVE",
"88 218 CURVE",
"104 213 LINE",
"104 380 LINE",
"288 380 LINE SMOOTH",
"303 380 OFFCURVE",
"312 388 OFFCURVE",
"312 401 CURVE SMOOTH",
"312 415 OFFCURVE",
"303 423 OFFCURVE",
"288 423 CURVE SMOOTH",
"77 423 LINE SMOOTH",
"61 423 OFFCURVE",
"52 413 OFFCURVE",
"52 398 CURVE SMOOTH",
"52 193 LINE SMOOTH",
"52 172 OFFCURVE",
"78 166 OFFCURVE",
"94 182 CURVE SMOOTH",
"116 209 OFFCURVE",
"144 223 OFFCURVE",
"182 223 CURVE SMOOTH",
"236 223 OFFCURVE",
"274 186 OFFCURVE",
"274 132 CURVE SMOOTH",
"274 74 OFFCURVE",
"236 40 OFFCURVE",
"180 40 CURVE SMOOTH",
"139 40 OFFCURVE",
"107 55 OFFCURVE",
"73 82 CURVE SMOOTH",
"67 87 OFFCURVE",
"62 89 OFFCURVE",
"56 89 CURVE SMOOTH",
"45 89 OFFCURVE",
"39 78 OFFCURVE",
"39 67 CURVE SMOOTH",
"39 59 OFFCURVE",
"41 52 OFFCURVE",
"48 46 CURVE SMOOTH",
"81 15 OFFCURVE",
"129 -3 OFFCURVE",
"181 -3 CURVE SMOOTH"
);
}
);
width = 348;
}
);
userData = {
com.typemytype.robofont.layerData = {
b = {
anchors = (
);
components = (
);
contours = (
);
lib = {
};
name = five;
unicodes = (
);
width = 1160;
};
};
};
},
{
color = 9;
glyphname = six.ss02;
lastChange = "2016-08-26 11:53:37 +0000";
layers = (
{
layerId = "E8E050E3-0A14-4B86-A80E-91CF38789E8F";
paths = (
{
closed = 1;
nodes = (
"263 -4 OFFCURVE",
"324 50 OFFCURVE",
"324 133 CURVE SMOOTH",
"324 213 OFFCURVE",
"269 266 OFFCURVE",
"193 266 CURVE SMOOTH",
"131 266 OFFCURVE",
"81 228 OFFCURVE",
"71 172 CURVE",
"78 153 LINE",
"78 202 LINE SMOOTH",
"78 332 OFFCURVE",
"130 383 OFFCURVE",
"190 383 CURVE SMOOTH",
"226 383 OFFCURVE",
"256 369 OFFCURVE",
"290 341 CURVE SMOOTH",
"297 337 OFFCURVE",
"302 334 OFFCURVE",
"308 334 CURVE SMOOTH",
"319 334 OFFCURVE",
"325 346 OFFCURVE",
"325 357 CURVE SMOOTH",
"325 364 OFFCURVE",
"323 371 OFFCURVE",
"315 378 CURVE SMOOTH",
"283 408 OFFCURVE",
"235 427 OFFCURVE",
"189 427 CURVE SMOOTH",
"101 427 OFFCURVE",
"26 362 OFFCURVE",
"26 201 CURVE SMOOTH",
"26 61 OFFCURVE",
"91 -4 OFFCURVE",
"187 -4 CURVE SMOOTH"
);
},
{
closed = 1;
nodes = (
"130 40 OFFCURVE",
"92 76 OFFCURVE",
"92 132 CURVE SMOOTH",
"92 186 OFFCURVE",
"131 223 OFFCURVE",
"184 223 CURVE SMOOTH",
"237 223 OFFCURVE",
"273 186 OFFCURVE",
"273 132 CURVE SMOOTH",
"273 76 OFFCURVE",
"237 40 OFFCURVE",
"184 40 CURVE SMOOTH"
);
}
);
width = 348;
}
);
userData = {
com.typemytype.robofont.layerData = {
b = {
anchors = (
);
components = (
);
contours = (
);
lib = {
};
name = nine;
unicodes = (
);
width = 1160;
};
};
};
},
{
color = 9;
glyphname = seven.ss02;
lastChange = "2016-08-26 11:53:37 +0000";
layers = (
{
layerId = "E8E050E3-0A14-4B86-A80E-91CF38789E8F";
paths = (
{
closed = 1;
nodes = (
"313 382 LINE SMOOTH",
"325 402 OFFCURVE",
"319 423 OFFCURVE",
"295 423 CURVE SMOOTH",
"52 423 LINE SMOOTH",
"37 423 OFFCURVE",
"29 415 OFFCURVE",
"29 401 CURVE SMOOTH",
"29 387 OFFCURVE",
"37 379 OFFCURVE",
"52 379 CURVE SMOOTH",
"272 379 LINE",
"270 405 LINE",
"71 33 LINE SMOOTH",
"53 2 OFFCURVE",
"98 -20 OFFCURVE",
"114 10 CURVE SMOOTH"
);
}
);
width = 348;
}
);
userData = {
com.typemytype.robofont.layerData = {
b = {
anchors = (
);
components = (
);
contours = (
);
lib = {
};
name = seven;
unicodes = (
);
width = 1160;
};
};
};
},
{
color = 9;
glyphname = eight.ss02;
lastChange = "2016-08-26 11:53:37 +0000";
layers = (
{
layerId = "E8E050E3-0A14-4B86-A80E-91CF38789E8F";
paths = (
{
closed = 1;
nodes = (
"272 -3 OFFCURVE",
"327 42 OFFCURVE",
"327 113 CURVE SMOOTH",
"327 170 OFFCURVE",
"289 211 OFFCURVE",
"231 221 CURVE",
"234 212 LINE",
"283 223 OFFCURVE",
"317 263 OFFCURVE",
"317 315 CURVE SMOOTH",
"317 383 OFFCURVE",
"265 427 OFFCURVE",
"174 427 CURVE SMOOTH",
"83 427 OFFCURVE",
"31 383 OFFCURVE",
"31 315 CURVE SMOOTH",
"31 264 OFFCURVE",
"65 224 OFFCURVE",
"114 212 CURVE",
"117 221 LINE",
"58 212 OFFCURVE",
"21 171 OFFCURVE",
"21 113 CURVE SMOOTH",
"21 42 OFFCURVE",
"75 -3 OFFCURVE",
"174 -3 CURVE SMOOTH"
);
},
{
closed = 1;
nodes = (
"104 40 OFFCURVE",
"72 67 OFFCURVE",
"72 116 CURVE SMOOTH",
"72 166 OFFCURVE",
"104 193 OFFCURVE",
"174 193 CURVE SMOOTH",
"243 193 OFFCURVE",
"276 166 OFFCURVE",
"276 116 CURVE SMOOTH",
"276 67 OFFCURVE",
"243 40 OFFCURVE",
"174 40 CURVE SMOOTH"
);
},
{
closed = 1;
nodes = (
"113 236 OFFCURVE",
"83 264 OFFCURVE",
"83 310 CURVE SMOOTH",
"83 356 OFFCURVE",
"113 383 OFFCURVE",
"174 383 CURVE SMOOTH",
"235 383 OFFCURVE",
"265 356 OFFCURVE",
"265 310 CURVE SMOOTH",
"265 264 OFFCURVE",
"234 236 OFFCURVE",
"174 236 CURVE SMOOTH"
);
}
);
width = 348;
}
);
userData = {
com.typemytype.robofont.layerData = {
b = {
anchors = (
);
components = (
);
contours = (
);
lib = {
};
name = eight;
unicodes = (
);
width = 1160;
};
};
};
},
{
color = 9;
glyphname = nine.ss02;
lastChange = "2016-08-26 11:53:37 +0000";
layers = (
{
layerId = "E8E050E3-0A14-4B86-A80E-91CF38789E8F";
paths = (
{
closed = 1;
nodes = (
"85 427 OFFCURVE",
"23 373 OFFCURVE",
"23 290 CURVE SMOOTH",
"23 210 OFFCURVE",
"79 157 OFFCURVE",
"155 157 CURVE SMOOTH",
"217 157 OFFCURVE",
"267 195 OFFCURVE",
"277 251 CURVE",
"269 270 LINE",
"269 221 LINE SMOOTH",
"269 91 OFFCURVE",
"218 40 OFFCURVE",
"158 40 CURVE SMOOTH",
"122 40 OFFCURVE",
"92 54 OFFCURVE",
"57 82 CURVE SMOOTH",
"51 86 OFFCURVE",
"45 89 OFFCURVE",
"39 89 CURVE SMOOTH",
"29 89 OFFCURVE",
"22 77 OFFCURVE",
"22 66 CURVE SMOOTH",
"22 59 OFFCURVE",
"24 52 OFFCURVE",
"33 45 CURVE SMOOTH",
"65 15 OFFCURVE",
"113 -4 OFFCURVE",
"159 -4 CURVE SMOOTH",
"247 -4 OFFCURVE",
"321 61 OFFCURVE",
"321 222 CURVE SMOOTH",
"321 362 OFFCURVE",
"257 427 OFFCURVE",
"160 427 CURVE SMOOTH"
);
},
{
closed = 1;
nodes = (
"217 383 OFFCURVE",
"256 347 OFFCURVE",
"256 291 CURVE SMOOTH",
"256 237 OFFCURVE",
"216 200 OFFCURVE",
"163 200 CURVE SMOOTH",
"111 200 OFFCURVE",
"75 237 OFFCURVE",
"75 291 CURVE SMOOTH",
"75 347 OFFCURVE",
"110 383 OFFCURVE",
"163 383 CURVE SMOOTH"
);
}
);
width = 348;
}
);
userData = {
com.typemytype.robofont.layerData = {
b = {
anchors = (
);
components = (
);
contours = (
);
lib = {
};
name = nine;
unicodes = (
);
width = 1160;
};
};
};
},
{
color = 9;
glyphname = one.ss01.ss02;
lastChange = "2016-08-26 11:53:37 +0000";
layers = (
{
layerId = "E8E050E3-0A14-4B86-A80E-91CF38789E8F";
paths = (
{
closed = 1;
nodes = (
"207 -3 OFFCURVE",
"218 6 OFFCURVE",
"218 23 CURVE SMOOTH",
"218 400 LINE SMOOTH",
"218 425 OFFCURVE",
"194 433 OFFCURVE",
"171 419 CURVE SMOOTH",
"79 360 LINE SMOOTH",
"55 344 OFFCURVE",
"77 304 OFFCURVE",
"101 319 CURVE SMOOTH",
"192 378 LINE",
"166 392 LINE",
"166 23 LINE SMOOTH",
"166 6 OFFCURVE",
"177 -3 OFFCURVE",
"192 -3 CURVE SMOOTH"
);
}
